<?xml version="1.0" encoding="UTF-8"?>
<svg xmlns="http://www.w3.org/2000/svg" xmlns:xlink="http://www.w3.org/1999/xlink" viewBox="0 0 101.42 67.12">
  <defs>
    <style>
      .ds {
        fill: none;
      }

      .dt {
        fill: url(#k);
      }

      .du {
        fill: url(#j);
      }

      .dv {
        fill: url(#h);
      }

      .dw {
        fill: url(#p);
      }

      .dx {
        fill: url(#m);
      }

      .dy {
        fill: url(#n);
      }

      .dz {
        fill: url(#l);
      }

      .ea {
        fill: url(#g);
      }

      .eb {
        fill: url(#f);
      }

      .ec {
        fill: url(#e);
      }

      .ed {
        fill: url(#d);
      }

      .ee {
        fill: url(#q);
      }

      .ef {
        fill: url(#o);
      }

      .eg {
        fill: url(#r);
      }

      .eh {
        fill: url(#s);
      }

      .ei {
        fill: url(#u);
      }

      .ej {
        fill: url(#w);
      }

      .ek {
        fill: url(#v);
      }

      .el {
        fill: url(#t);
      }

      .em {
        fill: url(#z);
      }

      .en {
        fill: url(#y);
      }

      .eo {
        fill: url(#x);
      }

      .ep {
        fill: url(#af);
      }

      .eq {
        fill: url(#aa);
      }

      .er {
        fill: url(#ae);
      }

      .es {
        fill: url(#an);
      }

      .et {
        fill: url(#ax);
      }

      .eu {
        fill: url(#ac);
      }

      .ev {
        fill: url(#am);
      }

      .ew {
        fill: url(#ab);
      }

      .ex {
        fill: url(#ag);
      }

      .ey {
        fill: url(#ah);
      }

      .ez {
        fill: url(#at);
      }

      .fa {
        fill: url(#az);
      }

      .fb {
        fill: url(#ay);
      }

      .fc {
        fill: url(#al);
      }

      .fd {
        fill: url(#aq);
      }

      .fe {
        fill: url(#ak);
      }

      .ff {
        fill: url(#av);
      }

      .fg {
        fill: url(#ap);
      }

      .fh {
        fill: url(#au);
      }

      .fi {
        fill: url(#ao);
      }

      .fj {
        fill: url(#ad);
      }

      .fk {
        fill: url(#aj);
      }

      .fl {
        fill: url(#ai);
      }

      .fm {
        fill: url(#as);
      }

      .fn {
        fill: url(#ar);
      }

      .fo {
        fill: url(#aw);
      }

      .fp {
        fill: url(#dd);
      }

      .fq {
        fill: url(#dc);
      }

      .fr {
        fill: url(#dj);
      }

      .fs {
        fill: url(#da);
      }

      .ft {
        fill: url(#dg);
      }

      .fu {
        fill: url(#dl);
      }

      .fv {
        fill: url(#dk);
      }

      .fw {
        fill: url(#dr);
      }

      .fx {
        fill: url(#di);
      }

      .fy {
        fill: url(#do);
      }

      .fz {
        fill: url(#df);
      }

      .ga {
        fill: url(#db);
      }

      .gb {
        fill: url(#dq);
      }

      .gc {
        fill: url(#dh);
      }

      .gd {
        fill: url(#dn);
      }

      .ge {
        fill: url(#de);
      }

      .gf {
        fill: url(#dp);
      }

      .gg {
        fill: url(#dm);
      }

      .gh {
        fill: url(#bc);
      }

      .gi {
        fill: url(#bb);
      }

      .gj {
        fill: url(#ba);
      }

      .gk {
        fill: url(#bh);
      }

      .gl {
        fill: url(#bk);
      }

      .gm {
        fill: url(#bj);
      }

      .gn {
        fill: url(#bi);
      }

      .go {
        fill: url(#bp);
      }

      .gp {
        fill: url(#bg);
      }

      .gq {
        fill: url(#bf);
      }

      .gr {
        fill: url(#be);
      }

      .gs {
        fill: url(#cf);
      }

      .gt {
        fill: url(#ce);
      }

      .gu {
        fill: url(#cg);
      }

      .gv {
        fill: url(#cn);
      }

      .gw {
        fill: url(#cm);
      }

      .gx {
        fill: url(#ch);
      }

      .gy {
        fill: url(#co);
      }

      .gz {
        fill: url(#cb);
      }

      .ha {
        fill: url(#ca);
      }

      .hb {
        fill: url(#cc);
      }

      .hc {
        fill: url(#bt);
      }

      .hd {
        fill: url(#bs);
      }

      .he {
        fill: url(#br);
      }

      .hf {
        fill: url(#bq);
      }

      .hg {
        fill: url(#bx);
      }

      .hh {
        fill: url(#bo);
      }

      .hi {
        fill: url(#bn);
      }

      .hj {
        fill: url(#bm);
      }

      .hk {
        fill: url(#bd);
      }

      .hl {
        fill: url(#bz);
      }

      .hm {
        fill: url(#by);
      }

      .hn {
        fill: url(#bw);
      }

      .ho {
        fill: url(#bv);
      }

      .hp {
        fill: url(#bu);
      }

      .hq {
        fill: url(#bl);
      }

      .hr {
        fill: url(#ct);
      }

      .hs {
        fill: url(#cy);
      }

      .ht {
        fill: url(#cv);
      }

      .hu {
        fill: url(#cu);
      }

      .hv {
        fill: url(#cz);
      }

      .hw {
        fill: url(#cp);
      }

      .hx {
        fill: url(#cw);
      }

      .hy {
        fill: url(#cj);
      }

      .hz {
        fill: url(#ci);
      }

      .ia {
        fill: url(#cd);
      }

      .ib {
        fill: url(#ck);
      }

      .ic {
        fill: url(#cx);
      }

      .id {
        fill: url(#cr);
      }

      .ie {
        fill: url(#cq);
      }

      .if {
        fill: url(#cl);
      }

      .ig {
        fill: url(#cs);
      }

      .ih {
        fill: #c4694d;
      }

      .ih, .ii, .ij, .ik, .il, .im, .in, .io, .ip, .iq, .ir, .is, .it, .iu, .iv, .iw, .ix, .iy, .iz, .ja, .jb, .jc, .jd, .je, .jf, .jg, .jh, .ji {
        mix-blend-mode: multiply;
      }

      .ih, .jj, .iu, .ix, .jf, .jk, .jh, .ji {
        opacity: .4;
      }

      .jl {
        fill: #7e8082;
      }

      .jm {
        fill: #edd3be;
      }

      .jn {
        fill: #b29b93;
      }

      .ii {
        fill: #ac6b53;
      }

      .ii, .ik {
        opacity: .6;
      }

      .ij {
        fill: #de7762;
      }

      .ij, .il, .im, .in, .io, .ip, .ir, .is, .iv, .ja, .jc, .jo {
        opacity: .3;
      }

      .ik {
        fill: #a76050;
      }

      .jp {
        fill: #c6bfdd;
      }

      .jj {
        fill: #a7aaaf;
      }

      .jj, .jk, .jq, .jo {
        mix-blend-mode: screen;
      }

      .jr, .jc, .jd, .je, .jf {
        fill: #463332;
      }

      .il {
        fill: #334b72;
      }

      .js {
        fill: #423333;
      }

      .im {
        fill: #60578f;
      }

      .jt {
        fill: #492a21;
      }

      .in {
        fill: #822e50;
      }

      .ju {
        isolation: isolate;
      }

      .jv {
        fill: #665050;
      }

      .io {
        fill: #a0335d;
      }

      .ip {
        fill: #491d17;
      }

      .jw {
        fill: #ffb182;
      }

      .jx {
        fill: #d2bcad;
      }

      .jy {
        fill: #d8c0b6;
      }

      .iq, .ir {
        fill: #e48665;
      }

      .iq, .it, .iw {
        opacity: .5;
      }

      .jz {
        fill: #ffe6d6;
      }

      .is, .ka {
        fill: #ceb6aa;
      }

      .it, .iu {
        fill: #c26856;
      }

      .kb, .jk, .jq {
        fill: #fff;
      }

      .kc {
        fill: #ed7e55;
      }

      .iv, .iw {
        fill: #e38565;
      }

      .ix, .iy, .iz, .ja, .jb {
        fill: #aa2424;
      }

      .iy, .je, .jq {
        opacity: .2;
      }

      .iz, .jd {
        opacity: .25;
      }

      .jb {
        opacity: .15;
      }

      .kd {
        fill: #544140;
      }

      .ke {
        fill: #fff4e9;
      }

      .kf {
        fill: #381714;
      }

      .kg {
        fill: #847070;
      }

      .jg {
        fill: #ecd2bd;
        opacity: .8;
      }

      .kh {
        clip-path: url(#i);
      }

      .jh, .ki {
        fill: #a69b9b;
      }

      .ji {
        fill: #c3694d;
      }

      .kj {
        fill: #edd8ca;
      }

      .kk {
        fill: #fae7dc;
      }

      .kl {
        fill: #ddc4b6;
      }
    </style>
    <linearGradient id="d" data-name="¡ÂÁ˚ÏˇÌÌ˚È „‡‰ËÂÌÚ 222" x1="45.04" y1="16.38" x2="45.04" y2="58.27" gradientUnits="userSpaceOnUse">
      <stop offset="0" stop-color="#d9cbcb"/>
      <stop offset=".38" stop-color="#d5c7c7"/>
      <stop offset=".75" stop-color="#c9bbbb"/>
      <stop offset="1" stop-color="#bdb0b0"/>
    </linearGradient>
    <linearGradient id="e" data-name="¡ÂÁ˚ÏˇÌÌ˚È „‡‰ËÂÌÚ 268" x1="45.04" y1="52.6" x2="45.04" y2="64.95" gradientUnits="userSpaceOnUse">
      <stop offset="0" stop-color="#544140"/>
      <stop offset=".8" stop-color="#493635"/>
      <stop offset="1" stop-color="#463332"/>
    </linearGradient>
    <linearGradient id="f" data-name="¡ÂÁ˚ÏˇÌÌ˚È „‡‰ËÂÌÚ 303" x1="45.04" y1="17.22" x2="45.04" y2="51.63" gradientUnits="userSpaceOnUse">
      <stop offset="0" stop-color="#80d5c9"/>
      <stop offset=".33" stop-color="#71c6c1"/>
      <stop offset=".97" stop-color="#4aa1ad"/>
      <stop offset="1" stop-color="#49a0ad"/>
    </linearGradient>
    <linearGradient id="g" data-name="¡ÂÁ˚ÏˇÌÌ˚È „‡‰ËÂÌÚ 268" x1="45.04" y1="66.47" x2="45.04" y2="56.43" xlink:href="#e"/>
    <linearGradient id="h" data-name="¡ÂÁ˚ÏˇÌÌ˚È „‡‰ËÂÌÚ 130" x1="69.06" y1="57.14" x2="69.06" y2="54.32" gradientUnits="userSpaceOnUse">
      <stop offset="0" stop-color="#cfe852"/>
      <stop offset=".32" stop-color="#c5df50"/>
      <stop offset=".84" stop-color="#adc74a"/>
      <stop offset="1" stop-color="#a4bf49"/>
    </linearGradient>
    <clipPath id="i">
      <rect class="ds" x="17.82" width="54.44" height="51.26" rx="2.66" ry="2.66"/>
    </clipPath>
    <linearGradient id="j" data-name="¡ÂÁ˚ÏˇÌÌ˚È „‡‰ËÂÌÚ 22" x1="27.63" y1="23.38" x2="27.63" y2="59.04" gradientTransform="translate(.06) skewX(-.9)" gradientUnits="userSpaceOnUse">
      <stop offset="0" stop-color="#544140"/>
      <stop offset=".53" stop-color="#503d3c"/>
      <stop offset="1" stop-color="#463332"/>
    </linearGradient>
    <linearGradient id="k" data-name="¡ÂÁ˚ÏˇÌÌ˚È „‡‰ËÂÌÚ 2" x1="64.43" y1="16.61" x2="64.43" y2="29.46" gradientUnits="userSpaceOnUse">
      <stop offset="0" stop-color="#ffb182"/>
      <stop offset=".22" stop-color="#fdac7e"/>
      <stop offset=".48" stop-color="#f99e72"/>
      <stop offset=".75" stop-color="#f3875f"/>
      <stop offset="1" stop-color="#ec6b47"/>
    </linearGradient>
    <linearGradient id="l" data-name="¡ÂÁ˚ÏˇÌÌ˚È „‡‰ËÂÌÚ 2" x1="66.54" y1="19.19" x2="66.54" y2="37.85" gradientTransform="translate(-6.97 -1.65) rotate(-1.99)" xlink:href="#k"/>
    <linearGradient id="m" data-name="¡ÂÁ˚ÏˇÌÌ˚È „‡‰ËÂÌÚ 2" x1="69.81" y1="19.19" x2="69.81" y2="37.18" gradientTransform="translate(-6.97 -1.65) rotate(-1.99)" xlink:href="#k"/>
    <linearGradient id="n" data-name="¡ÂÁ˚ÏˇÌÌ˚È „‡‰ËÂÌÚ 2" x1="71.27" y1="19.06" x2="71.27" y2="38.26" gradientTransform="translate(-6.97 -1.65) rotate(-1.99)" xlink:href="#k"/>
    <linearGradient id="o" data-name="¡ÂÁ˚ÏˇÌÌ˚È „‡‰ËÂÌÚ 22" x1="55.91" y1="23.72" x2="55.91" y2="49.59" gradientTransform="matrix(1,0,0,1,0,0)" xlink:href="#j"/>
    <linearGradient id="p" data-name="¡ÂÁ˚ÏˇÌÌ˚È „‡‰ËÂÌÚ 22" x1="41.54" y1="23.93" x2="41.54" y2="55.49" gradientTransform="translate(-.77 -.32) rotate(.03) skewX(-2.21)" xlink:href="#j"/>
    <linearGradient id="q" data-name="¡ÂÁ˚ÏˇÌÌ˚È „‡‰ËÂÌÚ 10" x1="188.52" y1="4.37" x2="188.52" y2="23.86" gradientTransform="translate(224.72 19.52) rotate(-173.67) scale(1 -1)" gradientUnits="userSpaceOnUse">
      <stop offset="0" stop-color="#dc874e"/>
      <stop offset=".25" stop-color="#c37441"/>
      <stop offset=".75" stop-color="#97522b"/>
      <stop offset="1" stop-color="#864623"/>
    </linearGradient>
    <linearGradient id="r" data-name="¡ÂÁ˚ÏˇÌÌ˚È „‡‰ËÂÌÚ 4" x1="187.12" y1="15.6" x2="187.12" y2="6.28" gradientTransform="translate(225.49 2.24) rotate(177.35) scale(1 -1) skewX(1.94)" gradientUnits="userSpaceOnUse">
      <stop offset="0" stop-color="#ffb182"/>
      <stop offset=".22" stop-color="#fdac7e"/>
      <stop offset=".48" stop-color="#fa9e72"/>
      <stop offset=".74" stop-color="#f4885f"/>
      <stop offset="1" stop-color="#ec6b47"/>
    </linearGradient>
    <linearGradient id="s" data-name="¡ÂÁ˚ÏˇÌÌ˚È „‡‰ËÂÌÚ 4" x1="187.12" y1="14.71" x2="187.12" y2="7.7" xlink:href="#r"/>
    <linearGradient id="t" data-name="¡ÂÁ˚ÏˇÌÌ˚È „‡‰ËÂÌÚ 39" x1="116.65" y1="-181.21" x2="116.65" y2="-160.59" gradientTransform="translate(186.43 162.37) rotate(168.37) scale(.99 -1.01) skewX(-.74)" gradientUnits="userSpaceOnUse">
      <stop offset="0" stop-color="#ffb283"/>
      <stop offset=".22" stop-color="#fdad7f"/>
      <stop offset=".47" stop-color="#fa9f73"/>
      <stop offset=".74" stop-color="#f48960"/>
      <stop offset="1" stop-color="#ed6b47"/>
    </linearGradient>
    <linearGradient id="u" data-name="¡ÂÁ˚ÏˇÌÌ˚È „‡‰ËÂÌÚ 138" x1="-1081.35" y1="-53.1" x2="-1081.35" y2="-31.36" gradientTransform="translate(1119.53 92.91) rotate(1.68) skewX(.91)" gradientUnits="userSpaceOnUse">
      <stop offset="0" stop-color="#ffb283"/>
      <stop offset=".21" stop-color="#fdac7e"/>
      <stop offset=".48" stop-color="#f99d71"/>
      <stop offset=".77" stop-color="#f3845c"/>
      <stop offset="1" stop-color="#ed6b47"/>
    </linearGradient>
    <linearGradient id="v" data-name="¡ÂÁ˚ÏˇÌÌ˚È „‡‰ËÂÌÚ 10" x1="198.48" y1="12.86" x2="198.48" y2="18.15" gradientTransform="translate(230.43 32.84) rotate(-168.98) scale(.94 -1) skewX(.49)" xlink:href="#q"/>
    <linearGradient id="w" data-name="¡ÂÁ˚ÏˇÌÌ˚È „‡‰ËÂÌÚ 10" x1="357.15" y1="26.73" x2="357.15" y2="32.06" gradientTransform="translate(-390.44 -29.3) rotate(1.59) scale(1.21 1) skewX(-1.08)" xlink:href="#q"/>
    <linearGradient id="x" data-name="¡ÂÁ˚ÏˇÌÌ˚È „‡‰ËÂÌÚ 10" x1="186.56" y1="4.97" x2="186.56" y2="23.36" xlink:href="#q"/>
    <linearGradient id="y" data-name="¡ÂÁ˚ÏˇÌÌ˚È „‡‰ËÂÌÚ 10" x1="183.82" y1="4.98" x2="183.82" y2="23.24" xlink:href="#q"/>
    <linearGradient id="z" data-name="¡ÂÁ˚ÏˇÌÌ˚È „‡‰ËÂÌÚ 48" x1="40.27" y1="23.32" x2="40.27" y2="33.69" gradientUnits="userSpaceOnUse">
      <stop offset="0" stop-color="#f0444e"/>
      <stop offset="1" stop-color="#c41620"/>
    </linearGradient>
    <linearGradient id="aa" data-name="¡ÂÁ˚ÏˇÌÌ˚È „‡‰ËÂÌÚ 48" x1="39.99" y1="24.07" x2="39.99" y2="33.06" xlink:href="#z"/>
    <linearGradient id="ab" data-name="¡ÂÁ˚ÏˇÌÌ˚È „‡‰ËÂÌÚ 48" x1="39.99" y1="24.5" x2="39.99" y2="31.22" xlink:href="#z"/>
    <linearGradient id="ac" data-name="¡ÂÁ˚ÏˇÌÌ˚È „‡‰ËÂÌÚ 16" x1="5.6" y1="42.38" x2="5.6" y2="65.46" gradientTransform="translate(67.64)" gradientUnits="userSpaceOnUse">
      <stop offset="0" stop-color="#eb5d84"/>
      <stop offset="1" stop-color="#bf2f56"/>
    </linearGradient>
    <linearGradient id="ad" data-name="¡ÂÁ˚ÏˇÌÌ˚È „‡‰ËÂÌÚ 46" x1="79.61" y1="41.93" x2="79.61" y2="58.71" gradientTransform="translate(161.9 1.36) rotate(-179.72) scale(1.03 -.93) skewX(14.47)" gradientUnits="userSpaceOnUse">
      <stop offset="0" stop-color="#987fc9"/>
      <stop offset="1" stop-color="#60578f"/>
    </linearGradient>
    <linearGradient id="ae" data-name="¡ÂÁ˚ÏˇÌÌ˚È „‡‰ËÂÌÚ 27" x1="82.19" y1="67.2" x2="82.19" y2="64.73" gradientTransform="translate(163.51 -.15) rotate(179.84) scale(1 -.98) skewX(17.65)" gradientUnits="userSpaceOnUse">
      <stop offset="0" stop-color="#ffb182"/>
      <stop offset="1" stop-color="#ec6b47"/>
    </linearGradient>
    <linearGradient id="af" data-name="¡ÂÁ˚ÏˇÌÌ˚È „‡‰ËÂÌÚ 22" x1="-972.31" y1="71.93" x2="-972.31" y2="73.08" gradientTransform="translate(-892.77 -2.52) rotate(179.85) scale(1 -.98) skewX(16.11)" xlink:href="#j"/>
    <linearGradient id="ag" data-name="¡ÂÁ˚ÏˇÌÌ˚È „‡‰ËÂÌÚ 22" x1="-972.85" y1="71.93" x2="-972.85" y2="73.08" gradientTransform="translate(-892.77 -2.52) rotate(179.85) scale(1 -.98) skewX(16.11)" xlink:href="#j"/>
    <linearGradient id="ah" data-name="¡ÂÁ˚ÏˇÌÌ˚È „‡‰ËÂÌÚ 22" x1="84.81" y1="37.3" x2="84.81" y2="58.87" gradientTransform="translate(160 .06) rotate(179.83) scale(1 -1) skewX(7.34)" xlink:href="#j"/>
    <linearGradient id="ai" data-name="¡ÂÁ˚ÏˇÌÌ˚È „‡‰ËÂÌÚ 22" x1="81.88" y1="40.4" x2="81.88" y2="59.4" gradientTransform="translate(163.51 -.15) rotate(179.84) scale(1 -.98) skewX(17.65)" xlink:href="#j"/>
    <linearGradient id="aj" data-name="¡ÂÁ˚ÏˇÌÌ˚È „‡‰ËÂÌÚ 22" x1="86.93" y1="51.13" x2="86.93" y2="68.74" gradientTransform="translate(158.95 .06) rotate(179.83) scale(1 -1)" xlink:href="#j"/>
    <linearGradient id="ak" data-name="¡ÂÁ˚ÏˇÌÌ˚È „‡‰ËÂÌÚ 27" x1="75.02" y1="66.58" x2="75.02" y2="64.12" gradientTransform="translate(147.66 .47) rotate(179.84) scale(1 -.98) skewX(5.32)" xlink:href="#ae"/>
    <linearGradient id="al" data-name="¡ÂÁ˚ÏˇÌÌ˚È „‡‰ËÂÌÚ 22" x1="-980.11" y1="71.31" x2="-980.11" y2="72.47" gradientTransform="translate(-910.1 -1.89) rotate(179.85) scale(1 -.98) skewX(3.63)" xlink:href="#j"/>
    <linearGradient id="am" data-name="¡ÂÁ˚ÏˇÌÌ˚È „‡‰ËÂÌÚ 22" x1="-980.64" y1="71.31" x2="-980.64" y2="72.47" gradientTransform="translate(-910.1 -1.89) rotate(179.85) scale(1 -.98) skewX(3.63)" xlink:href="#j"/>
    <linearGradient id="an" data-name="¡ÂÁ˚ÏˇÌÌ˚È „‡‰ËÂÌÚ 22" x1="83.05" y1="52.59" x2="83.05" y2="68.09" gradientTransform="translate(161.65 -.15) rotate(179.84) scale(1 -.98) skewX(10.74)" xlink:href="#j"/>
    <linearGradient id="ao" data-name="¡ÂÁ˚ÏˇÌÌ˚È „‡‰ËÂÌÚ 42" x1="86.2" y1="31.51" x2="86.2" y2="40.15" gradientTransform="translate(158.95 .06) rotate(179.83) scale(1 -1)" gradientUnits="userSpaceOnUse">
      <stop offset="0" stop-color="#9e5141"/>
      <stop offset=".24" stop-color="#864235"/>
      <stop offset=".75" stop-color="#5a271f"/>
      <stop offset="1" stop-color="#491d17"/>
    </linearGradient>
    <linearGradient id="ap" data-name="¡ÂÁ˚ÏˇÌÌ˚È „‡‰ËÂÌÚ 46" x1="85.2" y1="39.38" x2="85.2" y2="56.35" gradientTransform="translate(158.95 .06) rotate(179.83) scale(1 -1)" xlink:href="#ad"/>
    <linearGradient id="aq" data-name="¡ÂÁ˚ÏˇÌÌ˚È „‡‰ËÂÌÚ 4" x1="181.51" y1="32.94" x2="181.51" y2="28.65" gradientTransform="translate(-112.37 38.7) rotate(-9.31) skewX(1.94)" xlink:href="#r"/>
    <linearGradient id="ar" data-name="¡ÂÁ˚ÏˇÌÌ˚È „‡‰ËÂÌÚ 4" x1="181.45" y1="32.53" x2="181.45" y2="29.31" gradientTransform="translate(-112.37 38.7) rotate(-9.31) skewX(1.94)" xlink:href="#r"/>
    <linearGradient id="as" data-name="¡ÂÁ˚ÏˇÌÌ˚È „‡‰ËÂÌÚ 39" x1="95.05" y1="-182.37" x2="95.05" y2="-172.89" gradientTransform="translate(-29.44 212.88) rotate(1.98) skewX(-.73)" xlink:href="#t"/>
    <linearGradient id="at" data-name="¡ÂÁ˚ÏˇÌÌ˚È „‡‰ËÂÌÚ 138" x1="-1065.2" y1="-58.57" x2="-1065.2" y2="-48.58" gradientTransform="translate(-961.62 300.4) rotate(168.67) scale(1 -1) skewX(.91)" xlink:href="#u"/>
    <linearGradient id="au" data-name="¡ÂÁ˚ÏˇÌÌ˚È „‡‰ËÂÌÚ 42" x1="185.49" y1="4.69" x2="185.49" y2="7.12" gradientTransform="translate(-95.55 91.8) rotate(-20.68) scale(.94 1) skewX(.49)" xlink:href="#ao"/>
    <linearGradient id="av" data-name="¡ÂÁ˚ÏˇÌÌ˚È „‡‰ËÂÌÚ 42" x1="371.33" y1="21.44" x2="371.33" y2="23.89" gradientTransform="translate(507.03 -74.31) rotate(168.76) scale(1.21 -1) skewX(-1.09)" xlink:href="#ao"/>
    <linearGradient id="aw" data-name="¡ÂÁ˚ÏˇÌÌ˚È „‡‰ËÂÌÚ 42" x1="87" y1="31.51" x2="87" y2="40.15" xlink:href="#ao"/>
    <linearGradient id="ax" data-name="¡ÂÁ˚ÏˇÌÌ˚È „‡‰ËÂÌÚ 42" x1="88.7" y1="31.43" x2="88.7" y2="40.25" xlink:href="#ao"/>
    <linearGradient id="ay" data-name="¡ÂÁ˚ÏˇÌÌ˚È „‡‰ËÂÌÚ 46" x1="77.74" y1="39.72" x2="77.74" y2="55.71" gradientTransform="matrix(1,0,0,1,0,0)" xlink:href="#ad"/>
    <linearGradient id="az" data-name="¡ÂÁ˚ÏˇÌÌ˚È „‡‰ËÂÌÚ 198" x1="62.15" y1="39.19" x2="62.15" y2="50.72" gradientTransform="translate(-1 8.22) rotate(-5.55)" gradientUnits="userSpaceOnUse">
      <stop offset="0" stop-color="#ffe675"/>
      <stop offset="1" stop-color="#e57830"/>
    </linearGradient>
    <linearGradient id="ba" data-name="¡ÂÁ˚ÏˇÌÌ˚È „‡‰ËÂÌÚ 198" x1="49.1" y1="49.91" x2="49.1" y2="57" gradientTransform="translate(2.74 -1.62) rotate(4.59) scale(.9 .86) skewX(21.92)" xlink:href="#az"/>
    <linearGradient id="bb" data-name="¡ÂÁ˚ÏˇÌÌ˚È „‡‰ËÂÌÚ 198" x1="51.7" y1="50.72" x2="51.7" y2="57.09" gradientTransform="translate(2.74 -1.62) rotate(4.59) scale(.9 .86) skewX(21.92)" xlink:href="#az"/>
    <linearGradient id="bc" data-name="¡ÂÁ˚ÏˇÌÌ˚È „‡‰ËÂÌÚ 198" x1="55" y1="49.91" x2="55" y2="57" gradientTransform="translate(2.74 -1.62) rotate(4.59) scale(.9 .86) skewX(21.92)" xlink:href="#az"/>
    <linearGradient id="bd" data-name="¡ÂÁ˚ÏˇÌÌ˚È „‡‰ËÂÌÚ 65" x1="68.55" y1="51.87" x2="81.65" y2="48.66" gradientUnits="userSpaceOnUse">
      <stop offset="0" stop-color="#ffbe96"/>
      <stop offset=".2" stop-color="#fdb991"/>
      <stop offset=".43" stop-color="#faab84"/>
      <stop offset=".68" stop-color="#f5946e"/>
      <stop offset=".93" stop-color="#ee7450"/>
      <stop offset="1" stop-color="#ec6b47"/>
    </linearGradient>
    <linearGradient id="be" data-name="¡ÂÁ˚ÏˇÌÌ˚È „‡‰ËÂÌÚ 65" x1="68.4" y1="50.72" x2="81.04" y2="47.62" xlink:href="#bd"/>
    <linearGradient id="bf" data-name="¡ÂÁ˚ÏˇÌÌ˚È „‡‰ËÂÌÚ 46" x1="43.61" y1="42.38" x2="43.61" y2="65.46" gradientTransform="translate(54.19) rotate(-180) scale(1 -1)" xlink:href="#ad"/>
    <linearGradient id="bg" data-name="¡ÂÁ˚ÏˇÌÌ˚È „‡‰ËÂÌÚ 198" x1="12.99" y1="41.08" x2="12.99" y2="57.23" gradientTransform="matrix(1,0,0,1,0,0)" xlink:href="#az"/>
    <linearGradient id="bh" data-name="¡ÂÁ˚ÏˇÌÌ˚È „‡‰ËÂÌÚ 49" x1="-609.92" y1="74.09" x2="-610.12" y2="72.87" gradientTransform="translate(656.9 1.91) scale(1 .86) skewX(-26.4)" gradientUnits="userSpaceOnUse">
      <stop offset="0" stop-color="#b47652"/>
      <stop offset=".26" stop-color="#b2714e"/>
      <stop offset=".56" stop-color="#ad6343"/>
      <stop offset=".87" stop-color="#a54d31"/>
      <stop offset="1" stop-color="#a14228"/>
    </linearGradient>
    <linearGradient id="bi" data-name="¡ÂÁ˚ÏˇÌÌ˚È „‡‰ËÂÌÚ 22" x1="10.71" y1="65.24" x2="10.71" y2="67.41" gradientTransform="matrix(1,0,0,1,0,0)" xlink:href="#j"/>
    <linearGradient id="bj" data-name="¡ÂÁ˚ÏˇÌÌ˚È „‡‰ËÂÌÚ 49" x1="-611.22" y1="74.09" x2="-611.42" y2="72.87" gradientTransform="translate(655.38 1.91) scale(1 .86) skewX(-22.31)" xlink:href="#bh"/>
    <linearGradient id="bk" data-name="¡ÂÁ˚ÏˇÌÌ˚È „‡‰ËÂÌÚ 22" x1="9.56" y1="65.24" x2="9.56" y2="67.41" gradientTransform="translate(-1.86) skewX(5.69)" xlink:href="#j"/>
    <linearGradient id="bl" data-name="¡ÂÁ˚ÏˇÌÌ˚È „‡‰ËÂÌÚ 42" x1="8.2" y1="33.47" x2="8.2" y2="48.46" gradientTransform="matrix(1,0,0,1,0,0)" xlink:href="#ao"/>
    <linearGradient id="bm" data-name="¡ÂÁ˚ÏˇÌÌ˚È „‡‰ËÂÌÚ 87" x1="10.17" y1="39.92" x2="10.17" y2="64.43" gradientTransform="translate(-3.34) skewX(8.61)" gradientUnits="userSpaceOnUse">
      <stop offset="0" stop-color="#f2e6e3"/>
      <stop offset=".28" stop-color="#eee2df"/>
      <stop offset=".55" stop-color="#e2d6d3"/>
      <stop offset=".82" stop-color="#cec3c0"/>
      <stop offset="1" stop-color="#bdb3b0"/>
    </linearGradient>
    <linearGradient id="bn" data-name="¡ÂÁ˚ÏˇÌÌ˚È „‡‰ËÂÌÚ 87" x1="12.08" y1="39.92" x2="12.08" y2="64.43" gradientTransform="translate(-2.57) skewX(5.59)" xlink:href="#bm"/>
    <linearGradient id="bo" data-name="¡ÂÁ˚ÏˇÌÌ˚È „‡‰ËÂÌÚ 87" x1="13.14" y1="51.59" x2="13.14" y2="65.35" gradientTransform="matrix(1,0,0,1,0,0)" xlink:href="#bm"/>
    <linearGradient id="bp" data-name="¡ÂÁ˚ÏˇÌÌ˚È „‡‰ËÂÌÚ 87" x1="11.1" y1="51.59" x2="11.1" y2="65.35" gradientTransform="matrix(1,0,0,1,0,0)" xlink:href="#bm"/>
    <linearGradient id="bq" data-name="¡ÂÁ˚ÏˇÌÌ˚È „‡‰ËÂÌÚ 42" x1="8.63" y1="33.47" x2="8.63" y2="48.46" gradientTransform="matrix(1,0,0,1,0,0)" xlink:href="#ao"/>
    <linearGradient id="br" data-name="¡ÂÁ˚ÏˇÌÌ˚È „‡‰ËÂÌÚ 42" x1="12.11" y1="33.47" x2="12.11" y2="48.46" gradientTransform="matrix(1,0,0,1,0,0)" xlink:href="#ao"/>
    <linearGradient id="bs" data-name="¡ÂÁ˚ÏˇÌÌ˚È „‡‰ËÂÌÚ 198" x1="10.38" y1="41.08" x2="10.38" y2="57.23" gradientTransform="matrix(1,0,0,1,0,0)" xlink:href="#az"/>
    <linearGradient id="bt" data-name="¡ÂÁ˚ÏˇÌÌ˚È „‡‰ËÂÌÚ 49" x1="-268.14" y1="44.27" x2="-268.14" y2="38.21" gradientTransform="translate(278.67)" xlink:href="#bh"/>
    <linearGradient id="bu" data-name="¡ÂÁ˚ÏˇÌÌ˚È „‡‰ËÂÌÚ 49" x1="-268.32" y1="43.53" x2="-268.32" y2="39.31" gradientTransform="translate(278.67)" xlink:href="#bh"/>
    <linearGradient id="bv" data-name="¡ÂÁ˚ÏˇÌÌ˚È „‡‰ËÂÌÚ 49" x1="-299.87" y1="-15.63" x2="-299.87" y2="-6.79" gradientTransform="translate(-264.77 156.35) rotate(159.19) scale(1 -1)" xlink:href="#bh"/>
    <linearGradient id="bw" data-name="¡ÂÁ˚ÏˇÌÌ˚È „‡‰ËÂÌÚ 49" x1="-298.99" y1="-4.78" x2="-298.99" y2="4.13" gradientTransform="translate(-278.81 121.07) rotate(164.31) scale(1 -1)" xlink:href="#bh"/>
    <linearGradient id="bx" data-name="¡ÂÁ˚ÏˇÌÌ˚È „‡‰ËÂÌÚ 42" x1="10.3" y1="35.07" x2="10.3" y2="38.88" gradientTransform="matrix(1,0,0,1,0,0)" xlink:href="#ao"/>
    <linearGradient id="by" data-name="¡ÂÁ˚ÏˇÌÌ˚È „‡‰ËÂÌÚ 42" x1="12.59" y1="35.07" x2="12.59" y2="38.88" gradientTransform="matrix(1,0,0,1,0,0)" xlink:href="#ao"/>
    <linearGradient id="bz" data-name="¡ÂÁ˚ÏˇÌÌ˚È „‡‰ËÂÌÚ 42" x1="8.92" y1="33.47" x2="8.92" y2="48.46" gradientTransform="matrix(1,0,0,1,0,0)" xlink:href="#ao"/>
    <linearGradient id="ca" data-name="¡ÂÁ˚ÏˇÌÌ˚È „‡‰ËÂÌÚ 42" x1="9.44" y1="33.47" x2="9.44" y2="48.46" gradientTransform="matrix(1,0,0,1,0,0)" xlink:href="#ao"/>
    <linearGradient id="cb" data-name="¡ÂÁ˚ÏˇÌÌ˚È „‡‰ËÂÌÚ 49" x1="13.82" y1="52.6" x2="10.1" y2="51.15" gradientTransform="matrix(1,0,0,1,0,0)" xlink:href="#bh"/>
    <linearGradient id="cc" data-name="¡ÂÁ˚ÏˇÌÌ˚È „‡‰ËÂÌÚ 49" x1="13.65" y1="53.03" x2="9.93" y2="51.58" gradientTransform="matrix(1,0,0,1,0,0)" xlink:href="#bh"/>
    <linearGradient id="cd" data-name="¡ÂÁ˚ÏˇÌÌ˚È „‡‰ËÂÌÚ 49" x1="13.65" y1="53.03" x2="9.94" y2="51.58" gradientTransform="matrix(1,0,0,1,0,0)" xlink:href="#bh"/>
    <linearGradient id="ce" data-name="¡ÂÁ˚ÏˇÌÌ˚È „‡‰ËÂÌÚ 198" x1="7.83" y1="41.09" x2="7.83" y2="57.07" gradientTransform="matrix(1,0,0,1,0,0)" xlink:href="#az"/>
    <linearGradient id="cf" data-name="¡ÂÁ˚ÏˇÌÌ˚È „‡‰ËÂÌÚ 42" x1="9.53" y1="33.47" x2="9.53" y2="48.46" gradientTransform="matrix(1,0,0,1,0,0)" xlink:href="#ao"/>
    <linearGradient id="cg" data-name="¡ÂÁ˚ÏˇÌÌ˚È „‡‰ËÂÌÚ 22" x1="-165.56" y1="53.51" x2="-157.89" y2="53.51" gradientTransform="translate(-144.96 -.31) rotate(-179.83) scale(1 -1)" xlink:href="#j"/>
    <linearGradient id="ch" data-name="¡ÂÁ˚ÏˇÌÌ˚È „‡‰ËÂÌÚ 22" x1="488.18" y1="10.44" x2="488.18" y2="17.36" gradientTransform="translate(-475.2 36.55) rotate(.17) scale(1 .88) skewX(16.4)" xlink:href="#j"/>
    <linearGradient id="ci" data-name="¡ÂÁ˚ÏˇÌÌ˚È „‡‰ËÂÌÚ 222" x1="83.87" y1="47.07" x2="83.87" y2="53.11" gradientTransform="translate(-66.47 .06) rotate(.17)" xlink:href="#d"/>
    <linearGradient id="cj" data-name="¡ÂÁ˚ÏˇÌÌ˚È „‡‰ËÂÌÚ 222" x1="75.09" y1="53.37" x2="79.61" y2="53.37" gradientTransform="translate(-66.47 .06) rotate(.17)" xlink:href="#d"/>
    <linearGradient id="ck" data-name="¡ÂÁ˚ÏˇÌÌ˚È „‡‰ËÂÌÚ 198" x1="90.83" y1="42.13" x2="90.83" y2="67.22" gradientTransform="matrix(1,0,0,1,0,0)" xlink:href="#az"/>
    <linearGradient id="cl" data-name="¡ÂÁ˚ÏˇÌÌ˚È „‡‰ËÂÌÚ 10" x1="91.58" y1="33.71" x2="91.58" y2="47.07" gradientTransform="matrix(1,0,0,1,0,0)" xlink:href="#q"/>
    <linearGradient id="cm" data-name="¡ÂÁ˚ÏˇÌÌ˚È „‡‰ËÂÌÚ 23" x1="85.55" y1="47.12" x2="85.55" y2="65.91" gradientUnits="userSpaceOnUse">
      <stop offset="0" stop-color="#8ac5d5"/>
      <stop offset="1" stop-color="#568998"/>
    </linearGradient>
    <linearGradient id="cn" data-name="¡ÂÁ˚ÏˇÌÌ˚È „‡‰ËÂÌÚ 27" x1="-681.56" y1="74.19" x2="-681.72" y2="73.19" gradientTransform="translate(-591.24 1.88) rotate(-180) scale(1 -.86) skewX(8.91)" xlink:href="#ae"/>
    <linearGradient id="co" data-name="¡ÂÁ˚ÏˇÌÌ˚È „‡‰ËÂÌÚ 22" x1="-652.62" y1="73.87" x2="-652.62" y2="75.13" gradientTransform="translate(-548.59 1.75) rotate(-180) scale(1 -.86) skewX(19.36)" xlink:href="#j"/>
    <linearGradient id="cp" data-name="¡ÂÁ˚ÏˇÌÌ˚È „‡‰ËÂÌÚ 22" x1="-653.2" y1="73.87" x2="-653.2" y2="75.13" gradientTransform="translate(-548.59 1.75) rotate(-180) scale(1 -.86) skewX(19.36)" xlink:href="#j"/>
    <linearGradient id="cq" data-name="¡ÂÁ˚ÏˇÌÌ˚È „‡‰ËÂÌÚ 23" x1="-322.22" y1="52.78" x2="-322.22" y2="73.85" gradientTransform="translate(-219.98 1.75) rotate(-180) scale(1 -.86) skewX(17.51)" xlink:href="#cm"/>
    <linearGradient id="cr" data-name="¡ÂÁ˚ÏˇÌÌ˚È „‡‰ËÂÌÚ 27" x1="-677.65" y1="74.15" x2="-677.81" y2="73.16" gradientTransform="translate(-594.5 1.91) rotate(-180) scale(1 -.86) skewX(-.84)" xlink:href="#ae"/>
    <linearGradient id="cs" data-name="¡ÂÁ˚ÏˇÌÌ˚È „‡‰ËÂÌÚ 22" x1="-646.52" y1="73.79" x2="-646.52" y2="75.05" gradientTransform="translate(-553.42 1.82) rotate(-180) scale(1 -.86) skewX(7.4)" xlink:href="#j"/>
    <linearGradient id="ct" data-name="¡ÂÁ˚ÏˇÌÌ˚È „‡‰ËÂÌÚ 22" x1="-647.1" y1="73.79" x2="-647.1" y2="75.05" gradientTransform="translate(-553.42 1.82) rotate(-180) scale(1 -.86) skewX(7.4)" xlink:href="#j"/>
    <linearGradient id="cu" data-name="¡ÂÁ˚ÏˇÌÌ˚È „‡‰ËÂÌÚ 23" x1="90.32" y1="52.05" x2="90.32" y2="70.77" xlink:href="#cm"/>
    <linearGradient id="cv" data-name="¡ÂÁ˚ÏˇÌÌ˚È „‡‰ËÂÌÚ 23" x1="-321.68" y1="58.4" x2="-321.68" y2="77.42" gradientTransform="translate(-229.03 1.75) rotate(-180) scale(1 -.86) skewX(6.07)" xlink:href="#cm"/>
    <linearGradient id="cw" data-name="¡ÂÁ˚ÏˇÌÌ˚È „‡‰ËÂÌÚ 2" x1="140.31" y1="51.26" x2="131.73" y2="58.55" gradientTransform="translate(229.98 49.88) rotate(-155.44) scale(1 -1)" xlink:href="#k"/>
    <linearGradient id="cx" data-name="¡ÂÁ˚ÏˇÌÌ˚È „‡‰ËÂÌÚ 2" x1="110.99" y1="-15.14" x2="102.51" y2="-7.94" gradientTransform="translate(165.2 113.06) rotate(-145.57) scale(1 -1)" xlink:href="#k"/>
    <linearGradient id="cy" data-name="¡ÂÁ˚ÏˇÌÌ˚È „‡‰ËÂÌÚ 16" x1="87.37" y1="41.61" x2="87.37" y2="54" gradientTransform="matrix(1,0,0,1,0,0)" xlink:href="#ac"/>
    <linearGradient id="cz" data-name="¡ÂÁ˚ÏˇÌÌ˚È „‡‰ËÂÌÚ 10" x1="104.34" y1="33.12" x2="104.34" y2="47.38" gradientTransform="translate(-12.96 -5.42) rotate(3.14)" xlink:href="#q"/>
    <linearGradient id="da" data-name="¡ÂÁ˚ÏˇÌÌ˚È „‡‰ËÂÌÚ 16" x1="91.04" y1="41.61" x2="91.04" y2="54" gradientTransform="matrix(1,0,0,1,0,0)" xlink:href="#ac"/>
    <linearGradient id="db" data-name="¡ÂÁ˚ÏˇÌÌ˚È „‡‰ËÂÌÚ 4" x1="-315.37" y1="44.27" x2="-315.37" y2="38.21" gradientTransform="translate(-224.48) rotate(-180) scale(1 -1)" xlink:href="#r"/>
    <linearGradient id="dc" data-name="¡ÂÁ˚ÏˇÌÌ˚È „‡‰ËÂÌÚ 4" x1="-315.54" y1="43.53" x2="-315.54" y2="39.31" gradientTransform="translate(-224.48) rotate(-180) scale(1 -1)" xlink:href="#r"/>
    <linearGradient id="dd" data-name="¡ÂÁ˚ÏˇÌÌ˚È „‡‰ËÂÌÚ 4" x1="-255.73" y1="-32.41" x2="-255.73" y2="-23.57" gradientTransform="translate(318.96 156.35) rotate(20.81)" xlink:href="#r"/>
    <linearGradient id="de" data-name="¡ÂÁ˚ÏˇÌÌ˚È „‡‰ËÂÌÚ 4" x1="-253.53" y1="-17.55" x2="-253.53" y2="-8.64" gradientTransform="translate(333.01 121.07) rotate(15.69)" xlink:href="#r"/>
    <linearGradient id="df" data-name="¡ÂÁ˚ÏˇÌÌ˚È „‡‰ËÂÌÚ 10" x1="18.65" y1="2.47" x2="18.65" y2="4.88" gradientTransform="translate(73.44 30.42) rotate(10.47)" xlink:href="#q"/>
    <linearGradient id="dg" data-name="¡ÂÁ˚ÏˇÌÌ˚È „‡‰ËÂÌÚ 10" x1="22.99" y1="1.44" x2="22.99" y2="3.86" gradientTransform="translate(67.65 30.24) rotate(10.86) scale(.96 1) skewX(.78)" xlink:href="#q"/>
    <linearGradient id="dh" data-name="¡ÂÁ˚ÏˇÌÌ˚È „‡‰ËÂÌÚ 10" x1="107.68" y1="34.26" x2="107.68" y2="44.8" gradientTransform="translate(-12.96 -5.42) rotate(3.14)" xlink:href="#q"/>
    <linearGradient id="di" data-name="¡ÂÁ˚ÏˇÌÌ˚È „‡‰ËÂÌÚ 10" x1="107.22" y1="33.12" x2="107.22" y2="47.29" gradientTransform="translate(-12.96 -5.42) rotate(3.14)" xlink:href="#q"/>
    <linearGradient id="dj" data-name="¡ÂÁ˚ÏˇÌÌ˚È „‡‰ËÂÌÚ 22" x1="85.17" y1="69.67" x2="87.43" y2="69.67" gradientTransform="translate(30.07 -5.65) rotate(2.44) scale(.65)" xlink:href="#j"/>
    <linearGradient id="dk" data-name="¡ÂÁ˚ÏˇÌÌ˚È „‡‰ËÂÌÚ 222" x1="86.31" y1="69.03" x2="86.82" y2="69.03" gradientTransform="translate(14.93 22.81) rotate(-23.55) scale(.65)" xlink:href="#d"/>
    <linearGradient id="dl" data-name="¡ÂÁ˚ÏˇÌÌ˚È „‡‰ËÂÌÚ 65" x1="110.23" y1="52.43" x2="112.76" y2="58.9" gradientTransform="translate(19.78 -50.85) rotate(30.7)" xlink:href="#bd"/>
    <linearGradient id="dm" data-name="¡ÂÁ˚ÏˇÌÌ˚È „‡‰ËÂÌÚ 65" x1="-920.15" y1="558.98" x2="-914.3" y2="573.94" gradientTransform="translate(-893.82 -391.19) rotate(-124.39)" xlink:href="#bd"/>
    <linearGradient id="dn" data-name="¡ÂÁ˚ÏˇÌÌ˚È „‡‰ËÂÌÚ 65" x1="111.88" y1="51.28" x2="114.76" y2="58.63" gradientTransform="translate(19.78 -50.85) rotate(30.7)" xlink:href="#bd"/>
    <linearGradient id="do" data-name="¡ÂÁ˚ÏˇÌÌ˚È „‡‰ËÂÌÚ 16" x1="92.54" y1="41.61" x2="92.54" y2="54" gradientTransform="matrix(1,0,0,1,0,0)" xlink:href="#ac"/>
    <linearGradient id="dp" data-name="¡ÂÁ˚ÏˇÌÌ˚È „‡‰ËÂÌÚ 22" x1="80.67" y1="53.64" x2="88.01" y2="53.64" gradientTransform="translate(-.15 .24) rotate(-.17)" xlink:href="#j"/>
    <linearGradient id="dq" data-name="¡ÂÁ˚ÏˇÌÌ˚È „‡‰ËÂÌÚ 22" x1="88" y1="53.65" x2="92.13" y2="53.65" gradientTransform="translate(-.16 .26) rotate(-.17)" xlink:href="#j"/>
    <linearGradient id="dr" data-name="¡ÂÁ˚ÏˇÌÌ˚È „‡‰ËÂÌÚ 22" x1="84.09" y1="53.39" x2="84.59" y2="53.39" gradientTransform="matrix(1,0,0,1,0,0)" xlink:href="#j"/>
  </defs>
  <g class="ju">
    <g id="b" data-name="Layer 2">
      <g id="c" data-name="1">
        <g>
          <g>
            <rect class="jr" x="41.37" y="56.11" width="7.34" height="8.46"/>
            <rect class="jc" x="41.37" y="57.89" width="7.34" height="2.65"/>
            <rect class="ed" x="16.66" y="16.38" width="56.76" height="41.44" rx="2.77" ry="2.77"/>
            <path class="ec" d="M16.66,52.81v2.35c0,1.61,1.24,2.91,2.77,2.91h51.22c1.53,0,2.77-1.3,2.77-2.91v-2.35H16.66Z"/>
            <rect class="eb" x="17.82" y="17.22" width="54.44" height="34.04" rx="2.66" ry="2.66"/>
            <path class="jq" d="M70.03,18.76c-.46-.49-1.12-.8-1.85-.8H21.09c-1.41,0-2.55,1.14-2.55,2.55v27.53c0,.58.2,1.12.53,1.55l50.96-30.83Z"/>
            <g>
              <path class="ea" d="M36.29,63.36h17.51c.72,0,1.31.59,1.31,1.31v1.85h-20.14v-1.85c0-.72.59-1.31,1.31-1.31Z"/>
              <path class="jc" d="M53.8,63.36h-8.68c.73,0,1.31.59,1.31,1.31v1.85h8.68v-1.85c0-.73-.59-1.31-1.31-1.31Z"/>
              <g class="jo">
                <path class="kb" d="M41.42,64.22c0,.43-2.38.53-4.08.53-1.5,0-1.74-.24-1.74-.53s.34-.53,1.74-.53c1.7,0,4.08.09,4.08.53Z"/>
                <path class="kb" d="M43.23,64.22c0,.18-.34.3-.7.3s-.63-.13-.63-.3.26-.3.63-.3.7.12.7.3Z"/>
              </g>
              <rect class="jc" x="34.97" y="65.94" width="20.14" height=".58"/>
            </g>
            <rect class="jc" x="16.66" y="52.81" width="56.76" height=".76"/>
            <g>
              <path class="jc" d="M70.14,55.56c0,.6-.48,1.08-1.08,1.08s-1.08-.48-1.08-1.08.48-1.08,1.08-1.08,1.08.48,1.08,1.08Z"/>
              <path class="dv" d="M69.77,55.56c0,.39-.32.71-.71.71s-.71-.32-.71-.71.32-.71.71-.71.71.32.71.71Z"/>
            </g>
          </g>
          <g class="kh">
            <g>
              <path class="du" d="M30.66,24.88c-3.44,2.32-8.55,11.57-9.39,16.91-.85,5.33,2.7,11.88,2.7,11.88h6.52s-1.79-7.44-2-10.23,4.53-7.66,4.53-7.66l-2.35-10.9Z"/>
              <path class="jd" d="M30.01,51.65c-.06-.28-.13-.58-.2-.9,0-.04-.02-.07-.02-.11-.14-.64-.29-1.34-.44-2.06-.02-.09-.04-.17-.05-.26-.05-.26-.11-.52-.16-.78-.02-.1-.04-.21-.06-.31-.06-.33-.13-.66-.18-.98,0-.01,0-.02,0-.03-.06-.33-.11-.64-.16-.94-.01-.09-.03-.17-.04-.26-.03-.22-.07-.43-.09-.63-.01-.08-.02-.16-.03-.24-.03-.26-.06-.5-.08-.72-.01-.2,0-.41.03-.62,0-.06.02-.12.03-.18.04-.19.08-.37.15-.57.01-.04.02-.07.03-.11.08-.23.18-.46.28-.7.03-.06.06-.13.09-.19.09-.19.19-.38.3-.57.03-.06.06-.11.09-.17.14-.24.28-.47.43-.7.03-.05.07-.11.11-.16.5-.75,1.05-1.46,1.54-2.06l-1.55.65-.77-3.68c-.19,3.68-3.41,10.01-6.01,9.94-2.47-.06-1.99-2.18-1.96-2.49-.82,5.32,2.7,11.84,2.7,11.84h6.52s-.2-.82-.47-2.01h0Z"/>
              <g>
                <path class="dt" d="M64.54,20.31c-.61-.2-1.77.54-1.76.53.1.95.28,1.76.7,2.16.29-.25.11-1.08.31-1.21.21-.14.37-.2.51-.15.12.04.46.39.8.79.1.12.21,1.48.78,1.28.23-.08.3-1.57.04-1.92-.49-.67-1.08-1.38-1.38-1.48Z"/>
                <path class="ji" d="M64.54,20.31c-.61-.2-1.77.54-1.76.53.1.95.28,1.76.7,2.16.29-.25.11-1.08.31-1.21.21-.14.37-.2.51-.15.12.04.46.39.8.79.1.12.21,1.48.78,1.28.23-.08.3-1.57.04-1.92-.49-.67-1.08-1.38-1.38-1.48Z"/>
                <path class="dz" d="M62.38,37.3c.67-2.46,1.17-11.14,1.17-11.14l-2.46-1s-2.04,6.72-3.12,11.11c0,0,3.74,3.49,4.41,1.03Z"/>
                <path class="dx" d="M61.09,25.16c.31-1.33.53-3.99.9-6.55.25-1.79.76-2.99.98-2.9.44.19.27,1.12.06,2.87-.07.57-.09,1.36-.1,1.73,0,0,1.08-.72,1.66-.53.34.12,1.08.98,1.55,1.74.16.39.44,1.4.28,1.52-.37.27-.87-.66-1.02-.9-.46-.44-.9-.98-1.05-1.03-.27-.1-.97.45-1.03.67-.07.25.07.58.33.96.48.71,1.34,1.38,1.42,1.68-.33.79-1.45,1.64-1.68,1.89-.98.16-2.3-1.15-2.3-1.15Z"/>
                <path class="dy" d="M64.81,24.87c.33-.49.68-1.21,1.09-1.97.45-.82.95-1.44.86-1.72-.16-.53-1.08.05-1.74.92-.7.91-1.32.67-1.32.67,0,0-.28,1.17.03,1.88.31.71,1.07.21,1.07.21Z"/>
                <path class="ji" d="M64.81,24.87s0,0,0,0c0,0,.01-.02.02-.03.07-.09.12-.19.17-.28.27-.46.56-1.05.9-1.66,0,0,0,0,0-.01l.43-.73c.28-.45.48-.79.43-.98-.03-.1-.09-.16-.17-.19-.02.42-.73,1.24-1.19,2-.55.9-1.33,2.29-2.64,3.02l-.6,3,1.19.05c.12-1.69.19-2.91.19-2.91.31-.28.89-.77,1.26-1.29Z"/>
              </g>
              <path class="ef" d="M48.04,24.8c2.41,1.4,8.24,11.82,8.24,11.82l3.87-10.22,4.27,2.53s-.73,16.17-7.89,16.75c-5.46.44-9.14-8.51-9.14-8.51l.65-12.37Z"/>
              <path class="jd" d="M63.44,28.34c-.38,4.17-2.2,15.81-7.45,15.9-4.66.08-6.35-8.42-6.35-8.42l-1.67,2.58c1.23,2.43,4.37,7.62,8.56,7.28,7.16-.58,7.89-16.75,7.89-16.75l-.99-.59Z"/>
              <path class="jm" d="M36.02,21.59c.35-.6,5.08-.83,6.24.44s-2.27,2.32-2.27,2.32c0,0-4.67-1.56-3.97-2.76Z"/>
              <path class="dw" d="M43.26,23.01s3.36.78,4.59,1.68c1.3.94,1.93,4.49,1.94,9.27.02,6.2-.85,14.29-.36,19.72h-19.77s.31-9.22-.27-16.82c-.67-8.85.19-10.64.94-11.66.75-1.03,4.89-1.79,4.89-1.79l8.03-.39Z"/>
              <path class="ee" d="M36.6,19.11s-2.73-1.45-3.18-5.91c-.43-4.27.28-5.28,1.76-6.06,1.11-.58,3.82,1.45,3.82,1.45l-2.4,10.51Z"/>
              <path class="ip" d="M38.76,9.5s-1.94,1.34-4.06.53c-.95-.36-.93-1.21-.65-2.02-.68.84-.93,2.23-.63,5.19.45,4.45,3.18,5.91,3.18,5.91l2.15-9.41v-.2Z"/>
              <path class="eg" d="M35.71,16.55s1.28,3.93.36,6.62c-.2.68,4.52.5,6.31-.28,0,0-.47-.38-.54-2.34-.03-.9-6.12-4.01-6.12-4.01Z"/>
              <path class="eh" d="M42.31,22.83s.2.06.7.13c0,0,0,1.99-2.82,2.25-3.39.32-5.01-1.78-5.01-1.78l1.33-.33,5.8-.27Z"/>
              <path class="ii" d="M37.64,24.96c2.43-.86,3.85-2.2,4.4-2.8-.09-.35-.18-.87-.2-1.6-.03-.9-6.12-4.01-6.12-4.01,0,0,1.28,3.93.36,6.62h0l-.89.26s.8.99,2.46,1.52Z"/>
              <g>
                <path class="el" d="M35.69,13.72c-1.07-.22-1.64,1.15-1.3,2,.35.88,1.33,1.39,2.1,1.26.36-.48-.1-2.95-.8-3.26Z"/>
                <path class="iq" d="M35.62,14.58c-.57-.07-.83.66-.63,1.09.21.44.75.67,1.15.57.07-.09-.27-1.58-.53-1.66Z"/>
                <path class="ir" d="M35.69,13.72c-1.07-.22-1.64,1.15-1.3,2,.35.88,1.33,1.39,2.1,1.26.36-.48-.1-2.95-.8-3.26Z"/>
              </g>
              <path class="ei" d="M36.28,12.9c.08-1.91.83-3.91,3.79-4.6,3.3-.77,5.4.71,5.8,2.89.13.71.12,2.33-.27,5.06-.38,2.61-1.2,5.75-3.99,5.94-1.16.08-4.41-.5-5.06-5.1,0,0-.4-1.08-.26-4.19Z"/>
              <path class="ir" d="M37.82,17.29c-.35-4.15.57-7.53.57-7.53l-1.62.93c-.33.69-.46,1.45-.5,2.2-.14,3.11.26,4.19.26,4.19.65,4.6,3.9,5.18,5.06,5.1-1.54-.24-3.48-1.5-3.77-4.9Z"/>
              <path class="jt" d="M40.02,14.16c-.13.33-.03.63.21.65.25.03.55-.22.68-.55s.03-.63-.21-.65c-.25-.03-.55.22-.68.55Z"/>
              <path class="jt" d="M44.18,14.72c-.12.32-.05.6.17.62.22.02.49-.21.61-.53.12-.32.05-.6-.17-.62-.22-.02-.49.21-.61.53Z"/>
              <path class="kc" d="M42.53,17.76s.08.05.32.06c.21,0,.5-.05.81-.22.15-.09.32-.2.45-.39.14-.18.24-.47.15-.76-.04-.15-.1-.26-.19-.37-.05-.07-.16-.19-.29-.26-.27-.18-.62-.08-.74-.07-.11.01-.19-.06-.29-.23-.1-.16-.1-.27-.09-.47.03-.36.16-.71.29-.99.25-.57.55-.85.55-.85.06-.05.06-.15.01-.21-.05-.06-.13-.07-.19-.02h0s-.38.28-.71.89c-.15.31-.31.68-.36,1.14-.03.2,0,.54.14.75.09.2.35.5.68.48.29-.02.39-.06.49.02.05.03.09.07.17.17.04.05.09.12.1.18.09.23-.15.5-.36.66-.23.16-.46.25-.62.28-.13.03-.25,0-.25,0-.06-.01-.12.03-.13.09,0,.05.01.1.05.12l.03.02Z"/>
              <path class="ek" d="M43.91,12.18c-.13.32.49.55,1.06.97.58.42.8.78.96.62.14-.14.33-.78-.55-1.49-.57-.47-1.27-.57-1.47-.09Z"/>
              <path class="ej" d="M41.75,11.97c.07.34-.77.41-1.61.68-.85.28-1.26.6-1.42.41-.13-.17-.16-.85,1.17-1.35.86-.32,1.75-.24,1.86.26Z"/>
              <path class="eo" d="M40.11,8.55c-3.57,1.45-2.54,6.71-3.37,6.78-.48.04-.85-1.2-.84-2.19,0-1.32.27-3.35,1.33-4.26.42-.36,2.45-.5,2.88-.33Z"/>
              <path class="en" d="M37.82,10.86s1.1-3.03,5.09-2.43c3.19.48,3,3.86,3,3.86,1.27-.74,1.87-4.58.51-6.27-1.48-1.85-.6,1.16-3.55-.35-3.58-1.83-7.52-.94-8.03,1.82l2.98,3.36Z"/>
              <g>
                <path class="jt" d="M43.74,18.8s-1.63-.07-3.83-1.06c0,0,.25,1.88,1.35,2.24,1.33.43,2.48-1.18,2.48-1.18Z"/>
                <path class="ke" d="M43,18.88c-.46-.08-1.58-.29-2.72-.8,0,0,.41.75,1.23,1.01.99.32,1.49-.21,1.49-.21Z"/>
              </g>
              <path class="ip" d="M36.35,10.28c-.34.95-.44,1.97-.44,2.85,0,1,.36,2.23.84,2.19.69-.06.09-3.72,1.93-5.78-.26.15-.99.73-2.33.73Z"/>
              <path class="jm" d="M39.31,23.93l.77,1.32.55-1.39,1.6.69,1.01-1.56,1.21.33c-.58,3.25-1.78,7.28-3.85,9.29-3.86-2.82-5.56-6.36-6.57-8.93.36-.11.76-.2,1.17-.27l4.12.53Z"/>
              <path class="jg" d="M34.97,23.41s.37,2.31,3.68,3.8l.72-3.28-4.4-.51Z"/>
              <g>
                <path class="em" d="M40.6,26.57l-1.15.03-.58,5.42c.55.5,1.14.99,1.79,1.47.36-.35.7-.76,1.02-1.21l-1.07-5.71Z"/>
                <path class="in" d="M41.03,33.09c.22-.25.44-.52.65-.81l-1.07-5.71-1.15.03-.07.67c.74.28,1.53,2.74,1.65,5.82Z"/>
                <path class="eq" d="M38.34,24.11s.71.97,1.66.9,1.56-.87,1.56-.87l.41.75s-.64,1-1.87,1.04c-1.22.03-2.1-1-2.1-1l.34-.81Z"/>
                <path class="in" d="M38.34,24.11s.71.97,1.66.9,1.56-.87,1.56-.87l.41.75s-.64,1-1.87,1.04c-1.22.03-2.1-1-2.1-1l.34-.81Z"/>
                <path class="ew" d="M39.07,24.79c.19-.21,1.66-.22,1.83,0s-.14,1.69-.24,1.79-1.15.13-1.27.03c-.11-.1-.52-1.61-.32-1.83Z"/>
                <path class="in" d="M40.9,24.79c-.06-.08-.31-.13-.59-.15.1.15.18.32.18.52,0,.5-.4.91-.89.91-.16,0-.31-.06-.44-.14.08.34.18.64.23.68.11.1,1.16.07,1.27-.03s.42-1.57.24-1.79Z"/>
              </g>
              <path class="jg" d="M40.6,23.91l.71,3.29s2.28-1.61,1.98-4.13l-2.69.84Z"/>
              <path class="jz" d="M36.02,21.59s.98,1.76,3.29,2.34l-.78,2.58c-1.61-.58-3.09-1.96-3.56-3.1l1.05-1.82Z"/>
              <path class="jz" d="M40.62,23.86l.74,2.65s2.07-2.18,1.91-3.58l-.99-.85s-.36,1.09-1.66,1.78Z"/>
              <path class="ip" d="M46.42,6.02c-.41-.51-.63-.64-.81-.61.83.37,1.27,2.51.42,2.72-.76.19-.92-.67-2.38-.98-2.39-.52-4.67,2.22-6.86,1.14-1.5-.74-1.11-2.13-.35-2.94-.84.47-1.43,1.2-1.6,2.15.48.98,1.53,1.73,4.01,1.94.77-.69,2.05-1.3,4.05-1,3.19.48,3,3.86,3,3.86,1.27-.74,1.87-4.58.51-6.27Z"/>
              <g>
                <path class="js" d="M40.85,16.2c-.47,0-.91-.18-1.25-.52-.33-.33-.52-.78-.52-1.25,0-.47.18-.92.52-1.25.33-.33.78-.52,1.25-.52h0c.97,0,1.77.79,1.77,1.77,0,.47-.18.92-.52,1.25-.33.33-.78.52-1.25.52h0ZM40.85,12.93h0c-.4,0-.78.16-1.06.44s-.44.66-.44,1.06c0,.4.16.78.44,1.06.28.28.66.44,1.06.44h0c.4,0,.78-.16,1.06-.44s.44-.66.44-1.06c0-.83-.67-1.5-1.5-1.5Z"/>
                <path class="js" d="M45,16.65c-.07,0-.13,0-.2-.02-.77-.13-1.28-.98-1.12-1.9.15-.92.9-1.57,1.68-1.44.77.13,1.28.98,1.12,1.9-.07.44-.29.83-.6,1.1-.26.23-.57.35-.88.35ZM45.15,13.55c-.57,0-1.1.52-1.21,1.23-.13.77.28,1.49.9,1.59.3.05.6-.05.86-.27.26-.23.44-.57.51-.95h0c.13-.77-.28-1.49-.9-1.59-.05,0-.1-.01-.15-.01Z"/>
                <path class="js" d="M39.23,14.38s0,0-.01,0l-3.29-.38c-.07,0-.12-.07-.12-.14s.07-.12.14-.11l3.29.38c.07,0,.12.07.12.14,0,.07-.06.12-.13.12Z"/>
                <path class="js" d="M43.72,15.01s-.07-.02-.1-.05c-.46-.58-1.06-.2-1.09-.18-.06.04-.13.02-.17-.04-.04-.06-.02-.13.04-.17.28-.18.94-.37,1.41.24.04.05.03.13-.02.17-.02.02-.05.03-.08.03Z"/>
              </g>
              <path class="jd" d="M40.33,33.31l2.22.72c1.45-.99,3.1-2.64,3.22-3.18.15-.63-.59-1.61-.59-1.61,0,0,1.32-.05,1.71-.68.28-.45.14-2.95.04-4.37-.71-.32-1.57-.6-2.28-.8-.84,4.32-2.2,7.7-4.33,9.94Z"/>
              <path class="jd" d="M49.78,35.59c-2.41,2.3-6.28,2.99-10.55,2.68-4.29-.31-7.96-1.56-10.01-4.2.04.84.09,1.75.17,2.77.58,7.6.27,16.82.27,16.82h19.77c-.44-4.96.25-12.14.35-18.07Z"/>
              <polygon class="jm" points="60.41 26.54 64.16 28.79 64.25 27.43 60.76 25.57 60.41 26.54"/>
              <path class="jd" d="M42.5,34.67c.06-.35.1-.57.1-.57l-.17-.13c-2.81-.59-8.31-5.91-8.74-10.24-.6.15-1.28.35-1.89.57-.04.89-.09,4.1,1.32,5.71l1.89.13s-.72,1.38-.54,1.74c.18.36,4.4,3.16,8.02,2.77Z"/>
              <path class="jv" d="M34,23.51l-1.7.52s-.33,3.87,1.24,5.66l1.83.22s-.72,1.21-.54,1.56c.18.35,4.29,3.08,7.76,2.63l-2.04-1.48c-3.09-2.48-5.36-5.46-6.56-9.11Z"/>
              <path class="jv" d="M44.48,23.15l1.75.69s.37,4.1.03,4.65c-.34.55-1.48.59-1.48.59,0,0,.63.85.51,1.4-.13.55-2.05,2.41-3.41,3.13l-1.31-.99c1.99-2.09,3.2-5.31,3.92-9.47Z"/>
              <path class="jd" d="M40.57,32.62l2.03,1.48s-.87,7.7-.89,12.21.18,7.3.18,7.3h.44s-.25-4.89-.24-7.24.93-12.61.93-12.61l-2.13-1.5-.31.35Z"/>
              <g>
                <path class="jd" d="M39.38,43.22c0,.47-.38.85-.85.85s-.85-.38-.85-.85.38-.85.85-.85.85.38.85.85Z"/>
                <path class="jv" d="M39.14,43.11c0,.4-.33.73-.73.73s-.73-.33-.73-.73.33-.73.73-.73.73.33.73.73Z"/>
              </g>
              <g>
                <circle class="jd" cx="38.43" cy="48.75" r=".85"/>
                <circle class="jv" cx="38.31" cy="48.63" r=".73"/>
              </g>
              <g>
                <polygon class="jd" points="31.1 39.01 36.79 39.02 36.81 35.4 31.12 35.38 31.1 39.01"/>
                <polygon class="jz" points="31.57 38.54 36.84 38.56 36.86 35.41 31.58 35.4 31.57 38.54"/>
                <polygon class="kg" points="33.41 34.65 35.04 34.65 35.03 35.41 33.41 35.4 33.41 34.65"/>
                <g>
                  <polygon class="kl" points="31.91 38.1 33.72 38.1 33.73 35.82 31.93 35.82 31.91 38.1"/>
                  <polygon class="kl" points="34.03 37.12 36.49 37.13 36.49 36.62 34.03 36.61 34.03 37.12"/>
                  <polygon class="kl" points="34.03 36.31 36.49 36.31 36.5 35.83 34.03 35.82 34.03 36.31"/>
                  <polygon class="kl" points="34.02 37.66 36.49 37.66 36.49 37.4 34.02 37.4 34.02 37.66"/>
                </g>
              </g>
            </g>
          </g>
          <path class="jq" d="M17.82,43.57v5.03c0,1.47,1.19,2.66,2.66,2.66h49.12c1.47,0,2.66-1.19,2.66-2.66v-5.03H17.82Z"/>
          <g>
            <g>
              <path class="eu" d="M66.72,65.96h12.56c5.54-2.85,6.74-21.84-.53-23.51-7.28-1.67-8.37,8.3-10.77,9.26-1.96.79-4.39.85-5.06,3.29-.67,2.45-.33,8.42,3.8,10.96Z"/>
              <path class="io" d="M78.75,42.45s-.02,0-.03,0c2.08,2.19,3.37,5.3,3.37,8.75,0,6.61-4.76,11.98-10.64,11.98-3.65,0-6.86-2.06-8.78-5.21.13,2.76,1.16,6.23,4.05,8.01h12.56c5.54-2.85,6.74-21.84-.53-23.51Z"/>
              <path class="io" d="M75.76,43.17c-4.81,0-5.63,7.67-7.78,8.53-1.07.43-2.28.64-3.26,1.14.01.24.06.43.14.56,1.27,2.07,2.12,2.92,2.12,2.92h10.17c2.36,0,2.92-2.5,2.88-5.9-.04-3.58-1.42-7.26-4.28-7.26Z"/>
            </g>
            <g>
              <path class="fj" d="M69.74,41.01c1.5,1.01,1.42,2.55.96,4.83-.44,2.17-.67,3.58-1.37,4.31-1.31,1.36-5.61,1.01-7.42.25l-.1-1.28s3.09-.24,5.14-1.08c0,0,1.05-6.35,2.78-7.03Z"/>
              <path class="im" d="M69.74,41.01c1.5,1.01,1.42,2.55.96,4.83-.44,2.17-.67,3.58-1.37,4.31-1.31,1.36-5.61,1.01-7.42.25l-.1-1.28s3.09-.24,5.14-1.08c0,0,1.05-6.35,2.78-7.03Z"/>
              <g>
                <path class="er" d="M60.64,62.25l.83.56c-.35.68-.85,1.81-1.17,2.52-.24.51-.72.17-.64-.07.18-.42.73-2.12.99-3Z"/>
                <g>
                  <path class="ep" d="M60.28,65.41l-.15.7h-2.33c.05-.2.44-.28.97-.44.54-.17.88-.41.88-.41.09.53.33.59.63.15Z"/>
                  <polygon class="jx" points="57.83 66.04 60.16 66.04 60.12 66.16 57.77 66.17 57.83 66.04"/>
                  <path class="ex" d="M60.29,65.33s.08-.01.08.03c0,.02-.21.68-.21.68h-1.29s.15-.41.15-.41c0,0,.08-.07.26-.16.18-.1.23-.23.32-.24.09-.01.26.3.4.31.14,0,.29-.2.29-.2Z"/>
                </g>
              </g>
              <path class="ey" d="M75.08,51.32c-.14,1.14-.4,3.56-1.2,5.01l-12.1-.09s.52-3.09,1.62-3.78c1.1-.69,6.52-1.17,6.52-1.17l5.17.03Z"/>
              <path class="fl" d="M63.3,52.55c-1.4.89-2.61,8.08-3.93,12.36h1.88s3.05-5.88,3.93-8.68c.91-2.91-.47-4.57-1.87-3.68Z"/>
              <path class="je" d="M64.53,55.3c.44-.35.77-.19,1.75-.19,0,0-.12.44-.31,1.12h-.8c-.88,2.8-3.93,8.68-3.93,8.68h-.62c2.29-4.6,3.48-9.26,3.91-9.61Z"/>
              <path class="je" d="M62.94,52.93c.14-.19.29-.36.45-.47.8-.5,3.95-.89,5.54-1.07-.03,1.14-.81,3.32-1.19,4.83h-2.57s.12-.84.16-1.72c.1-2.11-1.62-2.1-2.39-1.57Z"/>
              <path class="fk" d="M78.24,51.31c.17,1.63-.11,3.56-.72,5.01l-11.43-.09s-.12-3.07.89-3.76c1.01-.69,6.09-1.19,6.09-1.19l5.17.03Z"/>
              <g>
                <path class="fe" d="M66.42,62.24l.93.56c-.19.68-.43,1.81-.59,2.52-.13.51-.68.17-.66-.07.09-.42.26-2.11.32-3Z"/>
                <g>
                  <path class="fc" d="M66.76,65.4v.7s-2.31,0-2.31,0c0-.2.38-.28.86-.44.5-.17.79-.41.79-.41.21.53.47.59.66.15Z"/>
                  <polygon class="jx" points="64.46 66.03 66.79 66.02 66.78 66.15 64.43 66.15 64.46 66.03"/>
                  <path class="ev" d="M66.76,65.32s.08-.01.08.03c0,.02-.06.68-.06.68h-1.29s.06-.41.06-.41c0,0,.07-.07.22-.16.15-.09.18-.23.27-.24.09-.01.33.3.47.31s.24-.2.24-.2Z"/>
                </g>
              </g>
              <path class="es" d="M66.88,52.56c-1.21.89-.74,8.07-1.02,12.35h1.92s1.67-5.88,1.87-8.68c.21-2.91-1.56-4.56-2.77-3.67Z"/>
              <path class="fi" d="M73.31,38.36s1.12-.87.99-2.92c-.13-1.97-.53-2.37-1.26-2.61-.55-.18-1.62.95-1.62.95l1.9,4.58Z"/>
              <path class="jd" d="M66.04,56.34c-.02-3.12.75-3.73.93-3.86,1.01-.69,6.09-1.19,6.09-1.19l3.09.02,2.09.34c.1,1.55-.17,3.33-.74,4.69l-7.87-.1c-.2,2.8-1.87,8.67-1.87,8.67h-.69c1.41-3.44,1.41-9.21,1.88-9.55,1.01-.74,6.45.53,6.44-1.19,0-1.31-2.5-1.63-4.7-1.59-2.15.04-4.29-.42-4.67,3.76Z"/>
              <path class="ip" d="M71.59,34.17s1.05.76,1.95.23c.4-.24.38-.86.07-1.27.37.33.59.94.68,2.31.14,2.05-.99,2.92-.99,2.92l-1.7-4.1-.02-.09Z"/>
              <path class="fg" d="M76.73,40.69c-1.05-.99-3.72-.63-4.5-.51-.88.14-1.61.36-2.54.84-.48.25-.65,2.01-.32,3.75.31,1.6,1.11,3.03,1.2,4.14.14,1.58-.44,2.38-.44,2.38,3.84.06,6.55,1.73,8.24,1.02.05-.99.31-4.43.14-6.04-.22-2.09-.75-4.61-1.79-5.58Z"/>
              <path class="im" d="M70.58,48.92c-.07-.83-.54-1.85-.9-2.98.67.19,1.66.36,3.16.36,1.3,0,1.91-.13,2.74-.43.45-.17.63-1.82.63-1.82,0,0,1.89,1.08,2.14.93.07.44.13.87.18,1.29.17,1.61-.09,5.05-.14,6.04-1.69.71-4.41-.96-8.24-1.02,0,0,.58-.8.44-2.38Z"/>
              <path class="fd" d="M73.43,36.97s-.2,1.89.47,3.01c.16.29-1.99.66-2.87.48,0,0,.18-.22.02-1.1-.07-.41,2.37-2.39,2.37-2.39Z"/>
              <path class="fn" d="M71.06,40.42s-.2.09-.41.17c0,0,.3.85,1.6.7,1.55-.18,2.08-1.28,2.08-1.28l-.63-.02-2.63.43Z"/>
              <path class="ii" d="M73.37,40.95c-1.17-.16-1.95-.64-2.25-.85,0-.17,0-.41-.06-.74-.07-.41,2.37-2.39,2.37-2.39,0,0-.2,1.89.47,3.01h0l.42.03s-.22.51-.96.93Z"/>
              <g>
                <path class="fm" d="M73.3,35.84c.47-.18.83.4.74.81-.09.43-.5.73-.86.73-.2-.19-.18-1.35.11-1.54Z"/>
                <path class="iq" d="M73.4,36.23c.25-.08.43.24.37.45-.06.22-.29.36-.48.35-.04-.04,0-.74.11-.79Z"/>
                <path class="ir" d="M73.3,35.84c.47-.18.83.4.74.81-.09.43-.5.73-.86.73-.2-.19-.18-1.35.11-1.54Z"/>
              </g>
              <path class="ez" d="M72.98,35.52c-.19-.86-.68-1.71-2.07-1.79-1.56-.1-2.39.74-2.41,1.76,0,.33.13,1.07.51,2.27.37,1.15.99,2.51,2.27,2.39.53-.05,1.96-.57,1.9-2.7,0,0,.1-.52-.21-1.92Z"/>
              <path class="ir" d="M72.61,37.63c-.16-1.91-.84-3.37-.84-3.37l.81.3c.2.29.32.62.39.96.3,1.4.21,1.92.21,1.92.06,2.14-1.37,2.65-1.9,2.7.68-.23,1.46-.95,1.33-2.51Z"/>
              <path class="jt" d="M71.42,36.46c.07.15.05.3-.06.33-.11.03-.25-.07-.32-.22-.07-.15-.05-.3.06-.33.11-.03.25.07.33.22Z"/>
              <path class="jt" d="M69.6,37c.07.15.05.29-.04.31-.09.03-.23-.07-.3-.21s-.05-.29.04-.31c.09-.03.23.07.29.21Z"/>
              <path class="iq" d="M70.51,38.21s-.03.03-.14.05c-.09.02-.23.02-.38-.04-.08-.03-.16-.07-.23-.14-.07-.07-.14-.2-.13-.33,0-.07.03-.12.06-.18.02-.03.06-.1.11-.14.11-.1.27-.08.33-.09.05,0,.08-.04.11-.13.03-.08.02-.13,0-.22-.04-.16-.13-.31-.21-.43-.16-.24-.31-.34-.31-.34-.03-.02-.04-.06-.02-.09.02-.03.05-.04.08-.02h0s.19.1.39.35c.09.13.19.28.25.49.03.09.04.25,0,.35-.03.1-.12.25-.27.27-.13.01-.18,0-.22.05-.02.02-.03.04-.06.09-.01.03-.03.06-.03.09-.02.11.1.21.22.27.12.06.23.08.3.08.06,0,.12-.02.12-.02.03,0,.05,0,.06.03,0,.02,0,.05-.02.06h-.01Z"/>
              <path class="fh" d="M69.46,35.78c.08.13-.18.29-.41.52-.23.23-.3.42-.39.35-.07-.05-.21-.33.13-.72.22-.26.53-.36.66-.16Z"/>
              <path class="ff" d="M70.42,35.52c0,.16.38.13.78.19.41.06.62.18.67.07.05-.09,0-.4-.64-.52-.42-.08-.81.03-.82.26Z"/>
              <path class="fo" d="M70.9,33.84c1.73.38,1.67,2.85,2.05,2.81.22-.02.29-.61.21-1.06-.11-.6-.38-1.5-.93-1.83-.22-.13-1.15-.04-1.33.07Z"/>
              <g>
                <path class="jt" d="M70.07,38.9s.73-.17,1.64-.81c0,0-.11.72-.57.98-.56.31-1.07-.17-1.07-.17Z"/>
                <path class="ke" d="M70.41,38.87c.2-.07.69-.26,1.16-.6,0,0-.09.48-.44.68-.42.23-.72-.08-.72-.08Z"/>
              </g>
              <path class="ip" d="M72.87,34.58c.13.3.23.61.3,1.01.08.45.01,1.04-.21,1.06-.32.03-.33-1.68-1.32-2.47.13.05.47.4,1.24.4Z"/>
              <path class="et" d="M73.15,32.92c.01-.21-.08-.41-.26-.57-.51-.45-1.68-.61-3.24-.08-1.64.56-3.16,2.03-1.11,3.66,0,0-.2-1.52,1-1.91,1.07-.34,1.81-.03,1.81-.03,0,0,1.77-.55,1.79-1.07Z"/>
              <path class="fb" d="M76.08,40.32c-.83.27-.15,3.02.4,5.3.3,1.23.53,2.72.53,2.72.14,1.52.76,3.85,2.49,1.77.84-1.58-.28-9.01-3.43-9.79Z"/>
              <path class="im" d="M76.94,40.74c1.99,2.26,2.63,7.5,1.94,8.8-.56.67-1,.88-1.35.81.38.7,1,.94,1.99-.24.76-1.43-.09-7.61-2.57-9.37Z"/>
              <path class="jp" d="M79.78,49.37c0,.98-.81,1.77-1.8,1.77s-1.8-.79-1.8-1.77.81-1.77,1.8-1.77,1.8.79,1.8,1.77Z"/>
              <path class="im" d="M78.66,47.74c-.08.91-.84,1.62-1.79,1.62-.24,0-.47-.05-.69-.13,0,.05-.02.1-.02.15,0,.98.81,1.77,1.8,1.77s1.8-.79,1.8-1.77c0-.74-.46-1.37-1.12-1.64Z"/>
              <g>
                <g>
                  <polygon class="ka" points="60.43 45.08 60.59 45.53 61.67 45.75 60.43 45.08"/>
                  <path class="ka" d="M68.75,45.7l.19.58-4.45.2s.52-.3,1.46-.47c.94-.17,2.8-.31,2.8-.31Z"/>
                  <path class="kk" d="M70.55,50.99l-1.56-4.88c-1.92.11-3.53.1-4.73.4-1.13-.67-2.76-.79-4.04-1.1l-.26.52,1.56,4.88,3.55.93-.23-.68,1.01.25h0s0-.01,0-.01h0s.17.51.17.51l4.27-.3-.16-.5.42-.03Z"/>
                  <polygon class="ka" points="68.99 46.12 68.74 46.63 70.13 51.02 70.55 50.99 68.99 46.12"/>
                  <path class="kk" d="M60.43,45.08l.07-.12s.61.49,1.53.76c.73.22,1.07.3,1.25.36.18.06-.32,0-1.32-.26-1-.27-1.53-.74-1.53-.74Z"/>
                  <path class="kk" d="M64.26,46.51s.65-.4,1.94-.57c1.29-.17,2.21-.26,2.53-.33l.03.09s-1.83.21-2.52.3c-1.02.13-1.88.54-1.88.54l-.1-.03Z"/>
                </g>
                <path class="fa" d="M66.48,52.33l4.5-.2.09-.13-1.73-5.38-4.62.33h0c-.28-.22-.61-.28-1.03-.08l-3.84-1.01-.09.13,1.82,5.24,3.76.99h0s.07.02.07.02h0l1.07.09h0Z"/>
                <polygon class="gj" points="65.25 52.37 61.48 51.37 59.75 45.99 63.52 46.99 65.25 52.37"/>
                <path class="gi" d="M66.39,52.46c-.4.11-.78.07-1.14-.09l-1.73-5.38c.36.16.74.2,1.14.09l1.73,5.38Z"/>
                <path class="ja" d="M66.39,52.46c-.42.11-.8.08-1.14-.09l-1.73-5.38c.33.15.72.2,1.14.09l1.73,5.38Z"/>
                <path class="jb" d="M65.25,52.37l-3.77-1c1.35-.58,2.05-2.01,2.04-4.37l1.73,5.38Z"/>
                <path class="iy" d="M63.98,47.12c-.16-.02-.32-.06-.46-.13l1.73,5.38c.14.07.3.11.46.13l-1.73-5.38Z"/>
                <polygon class="gh" points="70.97 52.13 66.35 52.46 64.66 47.09 69.25 46.75 70.97 52.13"/>
                <path class="jb" d="M70.97,52.13l-4.62.33-1.69-5.37c1.34,2.36,3.34,4.13,6.31,5.04Z"/>
                <path class="jy" d="M60.57,45.73s.2.03.5.07c.3.04.71.1,1.11.18.4.09.79.22,1.07.33.28.11.46.21.46.21,0,0-.18-.09-.47-.19-.29-.1-.68-.21-1.08-.29-.39-.09-.79-.17-1.09-.22-.3-.06-.5-.09-.5-.09Z"/>
                <path class="jy" d="M68.46,46.35s-.22.02-.55.03c-.33.01-.77.03-1.21.05-.44,0-.88.04-1.21.08-.33.04-.54.09-.54.09,0,0,.21-.06.54-.11.33-.05.77-.1,1.21-.12.44,0,.88,0,1.21,0,.33,0,.55-.01.55-.01Z"/>
                <path class="jy" d="M61.7,46.14s.39.09.78.18c.38.12.77.24.77.24,0,0-.39-.09-.78-.18-.38-.12-.77-.24-.77-.24Z"/>
              </g>
              <path class="ix" d="M68.64,50.44c-.01.11-.06.25.52.1-.2.05-.64.18-.66.31-.02.15.15.19.71.04-.18.05-.46.13-.46.24,0,.13.15.12.6.02-.03.02-.05.04-.05.07,0,.13.11.18.81.09.26-.03.44-.04.71-.04l-.33-1.04-.62-.16-1.24.36Z"/>
              <g>
                <path class="hk" d="M76.8,48.54c-2.07.51-4.37,1.3-5.12,1.24-.75-.06-.39.91-.13,1.21,1.37-.06,3.91.35,5.87.05,2.9-.44,1.85-3.11-.62-2.51Z"/>
                <path class="gr" d="M71.7,49.79c-.97-.29-1.17-.73-1.52-.58l.15.45c-.05.07-.35.23-.7.33-.49.15-1.06.32-.99.45.09.17,1.1-.25,1.14-.15.02.07-.23.11-.53.2-.36.11-.76.25-.74.35.02.11.44,0,.79-.1.27-.08.51-.15.54-.11.04.06-.2.1-.46.17-.3.08-.63.19-.6.29.03.1.36-.01.69-.1.3-.08.62-.15.66-.08.02.03-.19.05-.38.1-.22.06-.46.13-.42.2.07.13.68-.05,1.33-.16.34-.05,1.05-.07,1.05-.07.24.05.01-1.2.01-1.2Z"/>
              </g>
              <path class="ih" d="M77.41,51.05c2.69-.41,1.98-2.73-.11-2.59,1.62.17,1.74,1.78.21,2.18-1.55.4-4.16.19-5.71.21-1.45.02-2.37.38-2.5.37,0,0,0,0,0,0,.07.13.68-.05,1.33-.16.27-.04.76-.06.96-.07,1.38-.05,3.88.34,5.82.05Z"/>
              <path class="ip" d="M72.89,32.35c-.17-.15-.42-.27-.73-.34.28.08.87.4.59.94-.15.29-.75.41-1.38.37-2.93-.17-3.71,1.54-3.69.45-.28.63-.13,1.37.86,2.16,0,0-.2-1.52,1-1.91,1.07-.34,1.81-.03,1.81-.03,0,0,1.77-.55,1.79-1.07.01-.21-.08-.41-.26-.57Z"/>
            </g>
          </g>
          <g>
            <g>
              <path class="gq" d="M17.11,65.96H4.54c-5.54-2.85-6.74-21.84.53-23.51,7.28-1.67,8.37,8.3,10.77,9.26,1.96.79,4.39.85,5.06,3.29.67,2.45.33,8.42-3.8,10.96Z"/>
              <path class="im" d="M5.08,42.45s.02,0,.03,0c-2.08,2.19-3.37,5.3-3.37,8.75,0,6.61,4.76,11.98,10.64,11.98,3.65,0,6.86-2.06,8.78-5.21-.13,2.76-1.16,6.23-4.05,8.01H4.54c-5.54-2.85-6.74-21.84.53-23.51Z"/>
              <path class="im" d="M8.06,43.17c4.81,0,5.63,7.67,7.78,8.53,1.07.43,2.28.64,3.26,1.14-.01.24-.06.43-.14.56-1.27,2.07-1.14,3.74-1.14,3.74H7.66c-2.36,0-3.91-3.32-3.87-6.72.04-3.58,1.42-7.26,4.28-7.26Z"/>
              <path class="im" d="M15.1,59.2l-1.91-.13s-.74,3.28-.56,6.89h1.42l1.05-6.76Z"/>
              <path class="im" d="M13.86,57.24l-2.45-.22s-2.7,4.11-2.5,8.94h1.66c.08-.77.63-4.83,3.28-8.72Z"/>
            </g>
            <g>
              <path class="gp" d="M10.44,42.72c1.28,3.21,2.28,7.4,4.05,7.68,1.16.18,1.35-.93.64-3.02-.71-2.09-1.11-3.6-2.21-4.71-.49-.49-2.48.04-2.48.04Z"/>
              <path class="jb" d="M10.44,42.72c1.28,3.21,2.28,7.4,4.05,7.68,1.16.18,1.35-.93.64-3.02-.71-2.09-1.11-3.6-2.21-4.71-.49-.49-2.48.04-2.48.04Z"/>
              <g>
                <path class="jx" d="M10.08,65.58s-.13-.01-.18.37c-.18.52.39,1.22,1.25,1.17.43-.03.63-.22.1-.63-.48-.31-.09-.85-.62-.92-.4-.05-.41.31-.53.3-.12-.01-.02-.28-.02-.28Z"/>
                <path class="gk" d="M12.32,62.46s-.99-.45-1.5-.01c-.51.44-.42,1.99-.78,3.12-.11.57.73.31.83.04,0-.43.92-2.21,1.45-3.14Z"/>
                <path class="gn" d="M10.08,65.44s-.13-.04-.18.34c-.08.62.39,1.25,1.25,1.2.24-.02.39-.06.39-.18,0-.3-.37-.37-.47-.52-.24-.32.03-.8-.44-.86-.4-.05-.41.31-.53.3-.12-.01-.02-.28-.02-.28Z"/>
                <path class="jx" d="M10.4,65.99s-.02,0-.02-.01c0-.01,0-.03,0-.04,0,0,.24-.15.59-.02.02,0,.02.02.02.04,0,.01-.02.02-.04.02-.32-.12-.53.02-.54.02,0,0,0,0-.02,0Z"/>
                <path class="jx" d="M10.47,66.27s-.02,0-.02-.01c0-.01,0-.03,0-.04,0,0,.24-.16.59-.06.02,0,.02.02.02.04,0,.02-.03.03-.04.02-.33-.09-.53.05-.54.05,0,0-.01,0-.02,0Z"/>
              </g>
              <g>
                <path class="jx" d="M13.6,65.58s-.13-.01-.14.37c-.13.52.52,1.22,1.37,1.17.43-.03.6-.22.04-.63-.51-.31-.17-.85-.71-.92-.4-.05-.38.31-.5.3s-.05-.28-.05-.28Z"/>
                <path class="gm" d="M15.53,62.46s-1.03-.45-1.5-.01c-.47.44-.22,1.99-.47,3.12-.05.57.76.31.83.04-.04-.43.69-2.21,1.14-3.14Z"/>
                <path class="gl" d="M13.59,65.44s-.13-.04-.14.34c-.02.62.51,1.25,1.37,1.2.24-.02.39-.06.38-.18-.03-.3-.4-.37-.53-.52-.28-.32-.05-.8-.52-.86-.4-.05-.38.31-.5.3-.12-.01-.05-.28-.05-.28Z"/>
                <path class="jx" d="M13.96,65.99s-.02,0-.02-.01c0-.01,0-.03,0-.04,0,0,.22-.15.59-.02.01,0,.02.02.02.04,0,.01-.02.02-.04.02-.33-.12-.53.02-.53.02,0,0-.01,0-.02,0Z"/>
                <path class="jx" d="M14.06,66.27s-.02,0-.02-.01c-.01-.01,0-.03,0-.04,0,0,.21-.17.58-.06.02,0,.02.02.02.04,0,.02-.02.03-.04.02-.34-.1-.53.05-.53.05,0,0-.01,0-.02,0Z"/>
              </g>
              <path class="hq" d="M8.58,39.98c-.23-.12-.62.32-.52.59-.41-.34-.94.08-.85.59-.69.12-.79,1.09-.31,1.28-.23.23-.3.68-.12.99.29.51,1.01.58,1.55.57,1.01-.03,1.46-.97,1.47-1.86.02-1.32.03-1.5-.18-1.75-.12-.15-.81-.44-1.04-.41Z"/>
              <path class="ip" d="M8.58,39.98c-.23-.12-.62.32-.52.59-.41-.34-.94.08-.85.59-.69.12-.79,1.09-.31,1.28-.23.23-.3.68-.12.99.29.51,1.01.58,1.55.57,1.01-.03,1.46-.97,1.47-1.86.02-1.32.03-1.5-.18-1.75-.12-.15-.81-.44-1.04-.41Z"/>
              <path class="hj" d="M17.61,53.77c1.81.8-.03,4.23-.94,6.14-.91,1.91-1.9,5.08-1.9,5.08,0,0-.8.31-1.36-.33,0,0-.23-3.72.77-6.79s2.5-4.51,3.43-4.1Z"/>
              <path class="hi" d="M17.41,53.34c-.48-.16-4.45-.72-4.45-.72l-.94.45,1.18,4.09h4.19l.02-3.82Z"/>
              <path class="jh" d="M14.21,58.87c.4-1.47,1.6-2.49,1.6-2.49l-.09-1.89s-1.35.98-2.17,2.68h.89c-.09.23-.18.45-.26.71-1,3.07-.77,6.79-.77,6.79.16.19.35.29.53.35.02-1.03-.18-4.41.28-6.13Z"/>
              <path class="jh" d="M16.22,54.55l.02,1.07c.38-.78.89-.94,1.47-.88.37.04.55.53.63.87.12-.85-.04-1.54-.73-1.85-.06-.03-.14-.03-.2-.04v-.39c-.06-.02-.17-.05-.33-.08l-1.79.06.93,1.22Z"/>
              <path class="hh" d="M15.77,53.77c1.69.85-.67,4.23-1.87,6.14-1.2,1.91-2.67,5.08-2.67,5.08,0,0-.87.33-1.31-.33,0,0,.33-3.72,1.8-6.79,1.47-3.07,3.2-4.52,4.05-4.1Z"/>
              <path class="go" d="M6.65,52.86h5.51s-.01-.16-.01-.16c0,0,3.14.43,3.6.75l-1.56,3.71h-6.53c-1.2-.92-1.42-2.98-1.01-4.3Z"/>
              <path class="kf" d="M9.88,40.45l-1.33-.66s-.12.49.43.77c.14.07.4.15.57.16s.33-.27.33-.27Z"/>
              <path class="jh" d="M15.77,53.77s-.1-.02-.15-.03l.12-.29c-.46-.32-3.6-.75-3.6-.75v.15s-5.5,0-5.5,0c-.41,1.32-.19,3.38,1.01,4.3h4.43c-.12.23-.25.45-.37.71-1.47,3.07-1.8,6.79-1.8,6.79.16.24.37.35.58.39,0-.77.08-3.3.64-4.82.82-2.2,2.38-3.36,2.05-3.83s-3.91.06-4.01-.87c-.09-.87.69-1.25,3.27-1.27,2.53-.02,4.03.54,3.7,1.57.31-.93.31-1.71-.39-2.06Z"/>
              <path class="hf" d="M10.01,40.48s-1.98-.09-2.75-2.2l2.13-.39.62,2.59Z"/>
              <path class="ip" d="M9.39,37.89l-2.13.39c.77,2.11,2.75,2.2,2.75,2.2l-.62-2.59Z"/>
              <path class="he" d="M11.2,34.19s.53-.34,1.2.18c.91.71.49,1.79.62,2.55l-1.51-1.64-.31-1.09Z"/>
              <path class="ip" d="M11.5,35.28l1.51,1.64c-.09-.53.09-1.21-.1-1.81-.11.08-.28.08-.59-.14-.33-.23-.61-.58-.61-.58l-.33.49.11.4Z"/>
              <path class="hd" d="M6.58,53.05c.79-2.38,2.15-2.98,2.03-4.63-.08-1.22-1.77-2.77-1.22-4.98.42-1.68,2.04-1.6,3.42-1.67.57-.02,1.13.12,1.6.43,1.05.7,1.88,2.88,1.62,3.83-.28.98-.91,1.03-.91,2.49,0,1.22.6,2.4,1.05,4.15.08.66-5.05,1.8-7.59.38Z"/>
              <path class="iz" d="M8.61,48.42c-.08-1.22-1.77-2.77-1.22-4.98.09-.36.23-.63.41-.85-.09.8.07,1.64.51,2.39,1.25,2.1,4.95,2.85,5.76.78,0,.1-.02.19-.04.27-.28.98-.91,1.03-.91,2.49,0,1.22.6,2.4,1.05,4.15.08.66-5.05,1.8-7.59.38.79-2.38,2.15-2.98,2.03-4.63Z"/>
              <path class="hc" d="M9.12,41.89l-.29.07c.26.76,1.27,1.97,2.59,1.81,1.07-.13.88-1.17.57-1.8l-.36-.15-2.52.07Z"/>
              <path class="hp" d="M9.29,38.56c.15.62.2,1.14.25,1.86.07,1.02-.47,1.52-.47,1.52.66.17,1.85.24,2.56-.11,0,0-.54-.13-.33-1.53.14-.96-2.01-1.74-2.01-1.74Z"/>
              <path class="ik" d="M10.22,43.54c-.5-.26-.9-.7-1.16-1.11-.08-.14-.15-.27-.2-.38h0s-.02-.06-.03-.09l.29-.07h0s.06-.08.1-.14c0,0,0,0,0,0,0,0,0,0,0,0,.14-.22.34-.62.32-1.21,0-.04,0-.07,0-.11,0-.03,0-.06,0-.09-.03-.46-.07-.84-.13-1.22l1.86.89c.03.1.05.2.03.31-.21,1.4.33,1.53.33,1.53l.08.03c-.2.35-.71,1.17-1.5,1.69Z"/>
              <path class="ho" d="M9.39,39.81c.87,1.23,2.45,1.41,2.69,1.34.23-.07,1.57-1.63,1.04-3.37-.06-.23-.12-1.42-.42-1.92-.75-1.23-1.79-1.25-2.78-.9-1.56.55-1.61,1.98-1.09,3.53,0,0,.2.79.57,1.32Z"/>
              <path class="ij" d="M9.31,37.36l-.6.76c.03.12.07.24.11.37,0,0,.2.79.57,1.32.87,1.23,2.45,1.41,2.69,1.34-2.67-.3-2.76-3.79-2.76-3.79Z"/>
              <path class="it" d="M11.83,37.97c-.12-.29-.1-.63.08-.93-.13.13-.21.29-.25.46-.04.17-.05.35.01.52.11.31.36.54.66.7-.1.16-.25.31-.45.4.36-.07.55-.24.76-.48-.36-.13-.69-.33-.82-.66Z"/>
              <g>
                <path class="hn" d="M8.73,38.09c-.47-.06-.69.55-.52.9.17.37.65.55.99.47.15-.22-.15-1.26-.47-1.37Z"/>
                <path class="ij" d="M8.73,38.09c-.47-.06-.69.55-.52.9.17.37.65.55.99.48.15-.22-.16-1.26-.47-1.38Z"/>
                <path class="ik" d="M8.72,38.46c-.25-.01-.35.31-.25.49.1.18.34.26.52.21.03-.04-.12-.26-.27-.7Z"/>
              </g>
              <path class="hg" d="M10.96,37c.1.16-.33.17-.73.4-.29.16-.53.38-.59.35-.06-.03.12-.36.48-.58.34-.22.77-.28.84-.17Z"/>
              <path class="hm" d="M12.11,36.8c-.01.19.3.07.53.12.22.05.39.18.43.14.04-.03-.08-.26-.37-.37-.26-.1-.59-.03-.6.1Z"/>
              <path class="hl" d="M9.24,37.9c-.01.37.08.68-.2.74s-.44-.56-.44-.56l.64-.18Z"/>
              <path class="ha" d="M11.86,34.78c.07.83-1.17,1.26-1.78,1.67-.93.64-.85,1.71-.85,1.71l-.6-.1s-.99.37-1.36.27c-.66-2.06-.1-3.85,1.99-4.5,1.75-.55,2.55.3,2.61.95Z"/>
              <path class="ip" d="M11.23,33.87c.26.19.34.44.29.82-.13.98-2.28,2.12-3.66,1.85-.55-.11-.69-.47-.69-.81-.25.75-.21,1.65.1,2.6.38.11,1.36-.27,1.36-.27h0s-.04.01-.04.01c0,0,.16.62.44.56.26-.05.2-.32.2-.68.03-.34.16-1.04.85-1.51.61-.42,1.85-.85,1.78-1.67-.03-.31-.23-.68-.63-.9Z"/>
              <g>
                <path class="jt" d="M12.56,39.55s-.66.16-1.66.02c0,0,.37.69.85.71.58.02.81-.73.81-.73Z"/>
                <path class="ke" d="M12.27,39.67c-.19.02-.66.07-1.18,0,0,0,.29.24.65.25.43.01.54-.25.54-.25Z"/>
              </g>
              <g>
                <path class="jt" d="M10.96,37.92c.02.16-.06.31-.19.33s-.26-.1-.28-.26c-.02-.16.06-.31.19-.33.13-.02.26.1.28.26Z"/>
                <path class="jt" d="M10.14,38.21c.02-.25.2-.5.52-.59.19-.05.39.14.37.27,0,0-.16-.13-.35-.07-.2.06-.54.38-.54.38Z"/>
              </g>
              <g>
                <path class="jt" d="M12.92,37.62c.02.16-.06.3-.18.32-.12.02-.24-.09-.26-.25-.02-.16.06-.3.18-.32.12-.02.24.09.26.25Z"/>
                <path class="jt" d="M12.21,37.89c-.02-.23.17-.52.43-.56.17-.05.36.14.34.27,0,0-.15-.13-.33-.07-.18.06-.45.36-.45.36Z"/>
              </g>
              <g>
                <path class="gz" d="M11.12,51.56c.28.06,1.03.23,1.38.34.35.11.96.53.92.68-.05.15-.49-.28-.88-.41-.39-.13-1.42-.61-1.42-.61Z"/>
                <path class="hb" d="M10.73,52.28c.24.2.62.35,1.1.51.73.25.85.54.97.4.11-.12-.71-.52-.67-.57.04-.05.35.1.59.24.3.18.59.4.66.31.07-.09-.14-.22-.47-.45-.31-.22-.58-.32-.57-.38,0-.06.37.16.66.33.24.14.49.43.59.32.07-.07-.23-.33-.53-.55-.53-.38-.96-.62-1.49-.78-.22-.07-.46-.12-.46-.12,0,0,.02-.08-.22.26-.24.34-.17.47-.17.47Z"/>
                <path class="ia" d="M11.12,51.56c-.29-.08-1.12-.46-1.12-.46l-.5.83s.94.22,1.23.35.39-.72.39-.72Z"/>
                <path class="iu" d="M10,51.09s.66.31,1.01.43c-.06.16-.19.63.2.89.41.28.7.37.92.49-.08-.04-.18-.08-.29-.12-.48-.17-.86-.31-1.1-.51-.29-.13-1.23-.35-1.23-.35l.5-.83Z"/>
              </g>
              <path class="gt" d="M8.05,42.34c-1.44.91-3.68,6.19-3.02,7.5.76,1.49,4.2,2.33,5.25,2.51,0,0,.65-.43.41-1.19,0,0-2.98-1.87-3.32-2.23-.34-.36,3.54-6.32.67-6.59Z"/>
              <path class="gs" d="M9.88,36.61c-.68.53-.58,1.48-.45,1.75s.53.45.53.68-.36.23-.38.45c-.01.23.11.4.11.4,0,0-.3-.16-.29-.4.01-.24.33-.33.31-.45-.01-.13-.31-.16-.53-.63s-.09-1.6.69-1.8Z"/>
              <path class="ip" d="M9.88,36.61c-.68.53-.58,1.48-.45,1.75s.53.45.53.68-.36.23-.38.45c-.01.23.11.4.11.4,0,0-.3-.16-.29-.4.01-.24.33-.33.31-.45-.01-.13-.31-.16-.53-.63s-.09-1.6.69-1.8Z"/>
              <g>
                <path class="gu" d="M20.28,53.89l-7.37-.02c-.08,0-.15-.07-.15-.16v-.1c0-.09.07-.16.15-.16l7.37.02c.09,0,.16.07.16.16v.1c0,.09-.07.16-.16.16Z"/>
                <path class="gx" d="M20.26,53.49l-7.23-.02c-.13,0-.25-.12-.23-.22l1-5.84c0-.06.06-.09.13-.09l7.23.02c.13,0,.25.12.23.22l-1,5.84c0,.06-.06.09-.13.09Z"/>
                <path class="hz" d="M20.43,53.49l-7.23-.02c-.13,0-.25-.12-.23-.22l1-5.84c0-.06.06-.09.13-.09l7.23.02c.13,0,.25.12.23.22l-1,5.84c0,.06-.06.09-.13.09Z"/>
                <path class="jh" d="M16.75,50.41c-.04.25.15.45.43.45.28,0,.55-.2.59-.45s-.15-.45-.43-.45c-.28,0-.55.2-.59.45Z"/>
                <path class="jh" d="M13.03,52.92c-.02.1.1.22.23.22l7.23.02c.07,0,.12-.03.13-.09l-.06.34c0,.06-.06.09-.13.09l-7.23-.02c-.13,0-.25-.12-.23-.22l.06-.34Z"/>
                <path class="jq" d="M13.17,53.4l8.2-5.84c-.01-.05-.06-.09-.12-.09l-6.97-.02c-.12,0-.24.11-.22.21l-.97,5.65s.04.07.08.08Z"/>
                <g>
                  <g>
                    <path class="ki" d="M19.78,53.89h-.9c.04-.13.04-.26,0-.4h.9c.04.14.04.27,0,.4Z"/>
                    <path class="ki" d="M19.81,53.89h-.9c.04-.13.04-.26,0-.4h.9c.04.14.04.27,0,.4Z"/>
                    <path class="jk" d="M18.94,53.58s0-.06-.02-.09h.9s.02.06.02.09h-.9Z"/>
                    <path class="jh" d="M19.84,53.77s-.01.08-.03.12h-.9s.02-.08.02-.12h.9Z"/>
                  </g>
                  <g>
                    <path class="ki" d="M14.37,53.88h-.9c.04-.13.04-.26,0-.4h.9c.04.14.04.27,0,.4Z"/>
                    <path class="ki" d="M14.4,53.88h-.9c.04-.13.04-.26,0-.4h.9c.04.14.04.27,0,.4Z"/>
                    <path class="jk" d="M13.53,53.56s0-.06-.02-.09h.9s.02.06.02.09h-.9Z"/>
                    <path class="jh" d="M14.43,53.76s-.01.08-.03.12h-.9s.02-.08.02-.12h.9Z"/>
                  </g>
                </g>
                <path class="hy" d="M12.83,53.87h-4.22c-.08-.01-.15-.08-.15-.17v-.1c0-.09.07-.16.15-.16h4.22c.09.01.16.08.16.17v.1c0,.09-.07.16-.16.16Z"/>
                <g>
                  <path class="kd" d="M9.67,53.71h-.75s-.04-.02-.04-.04v-.04s.02-.04.04-.04h.75s.04.02.04.04v.04s-.02.04-.04.04Z"/>
                  <path class="kd" d="M10.7,53.71h-.75s-.04-.02-.04-.04v-.04s.02-.04.04-.04h.75s.04.02.04.04v.04s-.02.04-.04.04Z"/>
                  <path class="kd" d="M12.7,53.66c0,.06-.05.11-.11.11-.06,0-.11-.05-.11-.11,0-.06.05-.11.11-.11.06,0,.11.05.11.11Z"/>
                </g>
              </g>
              <path class="jb" d="M5.46,49.46c-.6-1.17,1.17-5.58,2.58-7.1-1.44.95-3.66,6.19-3,7.48.76,1.49,4.2,2.33,5.25,2.51,0,0,.2-.14.34-.39-1.14-.21-4.43-1.04-5.17-2.49Z"/>
            </g>
          </g>
          <g>
            <g>
              <path class="kb" d="M25.77,46.07c0,.38-.1.67-.31.87s-.5.3-.89.3h-.63v-2.29h.7c.36,0,.63.1.83.3.2.2.3.47.3.83ZM25.49,46.08c0-.3-.08-.52-.22-.67-.15-.15-.37-.23-.67-.23h-.39v1.83h.32c.32,0,.56-.08.72-.23.16-.16.24-.39.24-.69Z"/>
              <path class="kb" d="M26.28,47.24v-2.29h.27v2.29h-.27Z"/>
              <path class="kb" d="M28.46,46.63c0,.2-.07.36-.22.47s-.34.17-.59.17c-.27,0-.48-.03-.63-.11v-.26c.09.04.2.07.31.09.11.02.22.03.33.03.18,0,.31-.03.4-.1.09-.07.13-.16.13-.28,0-.08-.02-.14-.05-.19-.03-.05-.08-.1-.16-.14-.07-.04-.19-.09-.34-.15-.21-.08-.37-.17-.46-.27-.09-.1-.14-.24-.14-.41,0-.18.07-.32.2-.42s.31-.16.53-.16.44.04.63.13l-.08.23c-.19-.08-.37-.12-.55-.12-.14,0-.25.03-.33.09-.08.06-.12.14-.12.25,0,.08.01.14.04.19.03.05.08.1.15.14.07.04.18.09.32.14.24.09.41.18.5.28.09.1.13.23.13.38Z"/>
              <path class="kb" d="M29.64,47.24h-.27v-2.05h-.72v-.24h1.71v.24h-.72v2.05Z"/>
              <path class="kb" d="M32.14,47.24l-.29-.73h-.92l-.28.73h-.27l.9-2.3h.22l.9,2.3h-.28ZM31.78,46.27l-.27-.71c-.03-.09-.07-.2-.11-.33-.02.1-.06.21-.1.33l-.27.71h.74Z"/>
              <path class="kb" d="M34.52,47.24h-.3l-1.25-1.92h-.01c.02.23.03.43.03.62v1.3h-.25v-2.29h.3l1.25,1.91h.01s0-.12-.01-.27c0-.15-.01-.26,0-.33v-1.31h.25v2.29Z"/>
              <path class="kb" d="M36.13,45.16c-.25,0-.45.08-.59.25-.15.17-.22.4-.22.69s.07.53.21.69c.14.16.34.25.6.25.16,0,.34-.03.55-.09v.23c-.16.06-.35.09-.59.09-.34,0-.6-.1-.78-.31-.18-.2-.28-.5-.28-.87,0-.24.04-.44.13-.62.09-.18.21-.31.38-.41.17-.1.36-.14.59-.14.24,0,.45.04.63.13l-.11.23c-.17-.08-.35-.12-.52-.12Z"/>
              <path class="kb" d="M38.45,47.24h-1.28v-2.29h1.28v.24h-1.01v.74h.95v.23h-.95v.84h1.01v.24Z"/>
              <path class="kb" d="M41.06,47.24h-1.28v-2.29h1.28v.24h-1.01v.74h.95v.23h-.95v.84h1.01v.24Z"/>
              <path class="kb" d="M43.4,46.07c0,.38-.1.67-.31.87-.2.2-.5.3-.89.3h-.63v-2.29h.7c.36,0,.63.1.83.3.2.2.3.47.3.83ZM43.12,46.08c0-.3-.08-.52-.22-.67-.15-.15-.37-.23-.67-.23h-.39v1.83h.32c.32,0,.56-.08.72-.23.16-.16.24-.39.24-.69Z"/>
              <path class="kb" d="M45.64,44.95v1.48c0,.26-.08.47-.24.62-.16.15-.38.22-.65.22s-.49-.08-.64-.23c-.15-.15-.23-.36-.23-.62v-1.47h.27v1.49c0,.19.05.34.16.44.1.1.26.15.46.15s.34-.05.45-.15c.1-.1.16-.25.16-.44v-1.49h.27Z"/>
              <path class="kb" d="M47.22,45.16c-.25,0-.45.08-.59.25s-.22.4-.22.69.07.53.21.69c.14.16.34.25.6.25.16,0,.34-.03.55-.09v.23c-.16.06-.35.09-.59.09-.34,0-.6-.1-.78-.31-.18-.2-.28-.5-.28-.87,0-.24.04-.44.13-.62.09-.18.21-.31.38-.41.17-.1.36-.14.59-.14.24,0,.45.04.63.13l-.11.23c-.17-.08-.35-.12-.52-.12Z"/>
              <path class="kb" d="M49.7,47.24l-.29-.73h-.92l-.28.73h-.27l.9-2.3h.22l.9,2.3h-.28ZM49.33,46.27l-.27-.71c-.03-.09-.07-.2-.11-.33-.02.1-.06.21-.1.33l-.27.71h.74Z"/>
              <path class="kb" d="M51,47.24h-.27v-2.05h-.72v-.24h1.71v.24h-.72v2.05Z"/>
              <path class="kb" d="M52.07,47.24v-2.29h.27v2.29h-.27Z"/>
              <path class="kb" d="M54.95,46.09c0,.37-.09.65-.28.86-.19.21-.44.31-.77.31s-.6-.1-.78-.31c-.18-.21-.28-.5-.28-.87s.09-.66.28-.87c.18-.21.45-.31.78-.31s.58.1.77.31c.18.21.28.5.28.86ZM53.12,46.09c0,.31.07.54.2.7.13.16.32.24.58.24s.44-.08.57-.24c.13-.16.19-.4.19-.71s-.06-.54-.19-.7c-.13-.16-.32-.24-.57-.24s-.45.08-.58.24c-.13.16-.2.39-.2.7Z"/>
              <path class="kb" d="M57.24,47.24h-.3l-1.25-1.92h-.01c.02.23.03.43.03.62v1.3h-.25v-2.29h.3l1.25,1.91h.01s0-.12-.01-.27c0-.15-.01-.26,0-.33v-1.31h.25v2.29Z"/>
            </g>
            <g>
              <path class="kb" d="M23.84,49.91v-1.53h.18v1.36h.67v.16h-.85Z"/>
              <path class="kb" d="M25.8,49.91h-.85v-1.53h.85v.16h-.67v.49h.63v.16h-.63v.56h.67v.16Z"/>
              <path class="kb" d="M27,49.5c0,.13-.05.24-.15.31-.1.08-.23.11-.4.11-.18,0-.32-.02-.42-.07v-.17c.06.03.13.05.21.06.07.02.15.02.22.02.12,0,.21-.02.27-.07.06-.04.09-.11.09-.19,0-.05,0-.1-.03-.13-.02-.03-.06-.06-.11-.09-.05-.03-.12-.06-.23-.1-.14-.05-.24-.11-.3-.18-.06-.07-.09-.16-.09-.27s.04-.21.13-.28c.09-.07.2-.1.35-.1s.29.03.42.08l-.06.15c-.13-.05-.25-.08-.37-.08-.09,0-.17.02-.22.06-.05.04-.08.1-.08.17,0,.05,0,.1.03.13.02.03.05.06.1.09.05.03.12.06.21.09.16.06.27.12.33.18.06.07.09.15.09.25Z"/>
              <path class="kb" d="M28.17,49.5c0,.13-.05.24-.15.31-.1.08-.23.11-.4.11-.18,0-.32-.02-.42-.07v-.17c.06.03.13.05.21.06.07.02.15.02.22.02.12,0,.21-.02.27-.07.06-.04.09-.11.09-.19,0-.05,0-.1-.03-.13s-.06-.06-.11-.09c-.05-.03-.12-.06-.23-.1-.14-.05-.24-.11-.3-.18-.06-.07-.09-.16-.09-.27s.04-.21.13-.28c.09-.07.21-.1.35-.1s.29.03.42.08l-.06.15c-.13-.05-.25-.08-.37-.08-.09,0-.17.02-.22.06-.05.04-.08.1-.08.17,0,.05,0,.1.03.13s.05.06.1.09c.05.03.12.06.21.09.16.06.27.12.33.18.06.07.09.15.09.25Z"/>
              <path class="kb" d="M29.81,49.14c0,.24-.06.44-.19.58-.12.14-.29.21-.51.21s-.4-.07-.52-.21c-.12-.14-.18-.33-.18-.58s.06-.44.18-.58c.12-.14.3-.21.52-.21s.39.07.51.21c.12.14.18.33.18.58ZM28.59,49.14c0,.21.04.36.13.47.09.11.22.16.38.16s.3-.05.38-.16c.09-.11.13-.26.13-.47s-.04-.36-.13-.47c-.09-.11-.21-.16-.38-.16s-.3.05-.39.16c-.09.11-.13.26-.13.47Z"/>
              <path class="kb" d="M31.34,49.91h-.2l-.83-1.28h0c.01.15.02.29.02.41v.87h-.16v-1.53h.2l.83,1.27h0s0-.08,0-.18c0-.1,0-.17,0-.22v-.88h.17v1.53Z"/>
              <path class="kb" d="M32.68,48.97c.16,0,.29.04.38.12.09.08.14.19.14.33,0,.16-.05.28-.15.37-.1.09-.24.13-.42.13s-.3-.03-.39-.08v-.17s.11.06.18.07c.07.02.14.03.21.03.12,0,.22-.03.29-.09.07-.06.1-.14.1-.25,0-.21-.13-.32-.39-.32-.07,0-.15.01-.27.03l-.09-.06.06-.71h.76v.16h-.61l-.04.46c.08-.02.16-.02.24-.02Z"/>
            </g>
          </g>
          <g>
            <g>
              <path class="ib" d="M84.31,65.96h12.56c5.54-2.85,6.74-21.84-.53-23.51-7.28-1.67-8.37,8.3-10.77,9.26-1.96.79-4.39.85-5.06,3.29-.67,2.45-.33,8.42,3.8,10.96Z"/>
              <path class="iy" d="M96.31,42.45s-.02,0-.03,0c2.08,2.19,3.37,5.3,3.37,8.75,0,6.61-4.76,11.98-10.64,11.98-3.65,0-6.86-2.06-8.78-5.21.13,2.76,1.16,6.23,4.05,8.01h12.56c5.54-2.85,6.79-21.78-.53-23.51Z"/>
              <path class="iy" d="M93.36,43.17c-4.81,0-5.63,7.67-7.78,8.53-1.07.43-2.28.64-3.26,1.14.01.24.06.43.14.56,1.27,2.07,1.14,3.74,1.14,3.74h10.17c2.36,0,3.91-3.32,3.87-6.72-.04-3.58-1.42-7.26-4.28-7.26Z"/>
              <path class="iy" d="M80.94,61.52c.31.88.73,1.73,1.29,2.5,2.09-3.29,2.25-6.91,2.25-6.91l-1.41-.27-2.14,4.68Z"/>
              <path class="iy" d="M84.2,65.88s.07.05.11.08h2.52c.94-4.09.52-8.9.52-8.9l-1.56-.27-1.59,9.09Z"/>
            </g>
            <g>
              <path class="if" d="M94.67,38.33c0,1.96.93,3.6.53,5.27-.29,1.21-1.67,1.4-1.67,1.4,0,0-5.34.53-5.64-1.7-.3-2.24,1.13-3.27,1.26-5.08.13-1.8,5.52-.98,5.52.11Z"/>
              <path class="ip" d="M94.67,38.33c0,1.96.93,3.6.53,5.27-.29,1.21-1.67,1.4-1.67,1.4,0,0-5.34.53-5.64-1.7-.3-2.24,1.13-3.27,1.26-5.08.13-1.8,5.52-.98,5.52.11Z"/>
              <path class="gw" d="M82.87,53.34c.47-.16,4.38-.72,4.38-.72l.99.45-.78,4.09h-4.19l-.4-3.82Z"/>
              <g>
                <path class="gv" d="M79.23,63.02h1.09c-.27.65-.72,1.73-1.14,2.7-.28.49-.78.16-.69-.07.15-.45.61-1.83.75-2.63Z"/>
                <g>
                  <path class="gy" d="M79.16,65.8l-.21.67h-2.51c.07-.19.5-.27,1.08-.43.59-.16.99-.4.99-.4.06.51.31.57.66.15Z"/>
                  <polygon class="jx" points="76.46 66.4 78.98 66.4 78.93 66.52 76.39 66.52 76.46 66.4"/>
                  <path class="hw" d="M79.18,65.72s.09-.01.08.03c0,.02-.28.65-.28.65h-1.39l.2-.4s.09-.06.29-.15c.2-.09.27-.22.37-.23s.25.29.4.3c.15,0,.33-.19.33-.19Z"/>
                </g>
              </g>
              <path class="ie" d="M80.94,55.93c-.93,3.55-2.56,9.02-2.56,9.02.51.17,1.03.26,1.62,0,0,0,1.53-2.59,2.98-6.3.64-1.65,1.66-4.23.67-5.14-.68-.62-2.1.05-2.71,2.41Z"/>
              <path class="il" d="M88.2,53.2l-.1-.18-.86-.4s-3.58.52-4.3.7c-.53.07-1.14.55-1.6,1.51.25-.28.64-.74,1.14-.58.98.33.59,3.44-.41,5.8-.89,2.09-2.68,4.53-3.08,5.06.32.04.65.01,1.01-.15,0,0,1.53-2.59,2.98-6.3.18-.45.38-.97.56-1.5h3.42l.75-1.38.49-2.58Z"/>
              <g>
                <path class="id" d="M84.19,63.02h1.09c-.14.65-.38,1.73-.61,2.7-.18.49-.75.16-.71-.07.06-.45.25-1.83.23-2.63Z"/>
                <g>
                  <path class="ig" d="M84.66,65.8l-.04.67h-2.51c.02-.19.43-.27.97-.43.55-.16.88-.4.88-.4.19.51.46.57.7.15Z"/>
                  <polygon class="jx" points="82.12 66.4 84.64 66.4 84.63 66.52 82.08 66.52 82.12 66.4"/>
                  <path class="hr" d="M84.67,65.72s.09-.01.09.03c0,.02-.11.65-.11.65h-1.39l.1-.4s.08-.06.25-.15c.17-.09.21-.22.31-.23.1-.01.33.29.48.3.15,0,.28-.19.28-.19Z"/>
                </g>
              </g>
              <path class="hu" d="M94.77,52.86h-5.51s.01-.16.01-.16c0,0-3.14.43-3.6.75l1.56,3.71h6.53c1.2-.92,1.42-2.98,1.01-4.3Z"/>
              <path class="ht" d="M84.45,55.97c-.23,4.12-.82,8.99-.82,8.99.51.23,1.12.26,1.62,0,0,0,1.17-2.59,1.84-6.32.33-1.85.8-4.08-.27-5.01-.86-.75-2.24-.11-2.37,2.34Z"/>
              <path class="il" d="M94.77,52.86h-5.51s.01-.16.01-.16c0,0-2.59.36-3.41.66-.67.15-1.32.97-1.41,2.61-.02.38-.05.77-.07,1.16v.02c.17-1.57.17-2.99,1.71-3.04,2.14-.07,4.77.42,4.77,1.29s-3.74.75-4.14,1.08c-.39.33.28,4.67-2.25,8.66.27,0,.54-.06.78-.19,0,0,1.17-2.59,1.84-6.32.09-.48.18-.98.26-1.48h6.41c1.2-.92,1.42-2.98,1.01-4.3Z"/>
              <path class="hx" d="M84.38,47.04c-.34-.71-.79-3.07-.89-3.42-.13-.45.8-.34.8-.34.06.35.81,1.95,1.37,3.22,0,0-.94,1.26-1.28.55Z"/>
              <path class="ic" d="M84.29,43.28c-.12-.56-.5-1.47-.89-1.5-.22-.02-.52.72-.44.92.15.41.43.68.51.89.08.21.82-.31.82-.31Z"/>
              <path class="hs" d="M91.25,42.79c-1.36,3.19-3.09,6.99-4.85,7.27-1.16.18-2.59-.62-2.91-5.51l1.33-1.06,1.48,3.9c.58-.07,1.11-3.6,2.21-4.71.49-.49,2.75.1,2.75.1Z"/>
              <path class="io" d="M89.22,43.49c-.83,4.23-2.37,5.68-3,5.71-1.12.04-2.19-.73-2.73-4.65h0c.32,4.9,1.76,5.7,2.91,5.52,1.77-.28,3.5-4.08,4.85-7.27,0,0-1.86.74-2.03.7Z"/>
              <path class="hv" d="M90.22,34.19s-.53-.34-1.2.18c-.91.71-.49,1.79-.62,2.55l1.51-1.64.31-1.09Z"/>
              <path class="ip" d="M89.91,35.28l-1.51,1.64c.09-.53-.09-1.21.1-1.81.11.08.28.08.59-.14.33-.23.61-.58.61-.58l.33.49-.11.4Z"/>
              <path class="fs" d="M94.84,53.05c-.79-2.38-2.15-2.98-2.03-4.63.08-1.22,1.77-2.77,1.22-4.98-.42-1.68-2.02-1.63-3.42-1.67-.57-.02-1.13.12-1.6.43-1.05.7-1.88,2.88-1.62,3.83.28.98.91,1.03.91,2.49,0,1.22-.6,2.4-1.05,4.15-.08.66,5.05,1.8,7.59.38Z"/>
              <path class="io" d="M92.81,48.42c.08-1.22,1.77-2.77,1.22-4.98-.09-.36-.23-.63-.41-.85.09.8-.07,1.64-.51,2.39-1.25,2.1-4.95,2.85-5.76.78,0,.1.02.19.04.27.28.98.91,1.03.91,2.49,0,1.22-.6,2.4-1.05,4.15-.08.66,5.05,1.8,7.59.38-.79-2.38-2.15-2.98-2.03-4.63Z"/>
              <path class="ga" d="M92.3,41.89l.29.07c-.26.76-1.27,1.97-2.59,1.81-1.07-.13-.88-1.17-.57-1.8l.36-.15,2.52.07Z"/>
              <path class="fq" d="M92.12,38.56c-.15.62-.2,1.14-.25,1.86-.07,1.02.47,1.52.47,1.52-.66.17-1.85.24-2.56-.11,0,0,.54-.13.33-1.53-.14-.96,2.01-1.74,2.01-1.74Z"/>
              <path class="ii" d="M91.2,43.54c.5-.26.9-.7,1.16-1.11.08-.14.15-.27.2-.38h0s.02-.06.03-.09l-.29-.07h0s-.06-.08-.1-.14c0,0,0,0,0,0,0,0,0,0,0,0-.14-.22-.34-.62-.32-1.21,0-.04,0-.07,0-.11,0-.03,0-.06,0-.09.03-.46.07-.84.13-1.22l-1.86.89c-.03.1-.05.2-.03.31.21,1.4-.33,1.53-.33,1.53l-.08.03c.2.35.71,1.17,1.5,1.69Z"/>
              <path class="fp" d="M92.03,39.81c-.87,1.23-2.45,1.41-2.69,1.34-.23-.07-1.57-1.63-1.04-3.37.06-.23.12-1.42.42-1.92.75-1.23,1.79-1.25,2.78-.9,1.56.55,1.61,1.98,1.09,3.53,0,0-.2.79-.57,1.32Z"/>
              <path class="iv" d="M92.11,37.36l.6.76c-.03.12-.07.24-.11.37,0,0-.2.79-.57,1.32-.87,1.23-2.45,1.41-2.69,1.34,2.67-.3,2.76-3.79,2.76-3.79Z"/>
              <path class="iw" d="M89.59,37.97c.12-.29.1-.63-.08-.93.13.13.21.29.25.46.04.17.05.35-.01.52-.11.31-.36.54-.66.7.1.16.25.31.45.4-.36-.07-.55-.24-.76-.48.36-.13.69-.33.82-.66Z"/>
              <g>
                <path class="ge" d="M92.69,38.09c.47-.06.69.55.52.9-.17.37-.65.55-.99.47-.15-.22.15-1.26.47-1.37Z"/>
                <path class="iv" d="M92.69,38.09c.47-.06.69.55.52.9-.17.37-.65.55-.99.48-.15-.22.16-1.26.47-1.38Z"/>
                <path class="ii" d="M92.7,38.46c.25-.01.35.31.25.49-.1.18-.34.26-.52.21-.03-.04.12-.26.27-.7Z"/>
              </g>
              <path class="fz" d="M90.46,37c-.1.16.33.17.73.4.29.16.53.38.59.35.06-.03-.12-.36-.48-.58-.34-.22-.77-.28-.84-.17Z"/>
              <path class="ft" d="M89.31,36.8c.01.19-.3.07-.53.12-.22.05-.39.18-.43.14-.04-.03.08-.26.37-.37.26-.1.59-.03.6.1Z"/>
              <path class="gc" d="M92.18,37.9c.01.37-.08.68.2.74.28.06.44-.56.44-.56l-.64-.18Z"/>
              <path class="fx" d="M89.55,34.78c-.07.83,1.17,1.26,1.78,1.67.93.64.85,1.71.85,1.71l.6-.1s1.51.37,1.89.27c.23-2.35-.43-3.85-2.51-4.5-1.75-.55-2.55.3-2.61.95Z"/>
              <g>
                <path class="jt" d="M88.86,39.55s.66.16,1.66.02c0,0-.37.69-.85.71-.58.02-.81-.73-.81-.73Z"/>
                <path class="ke" d="M89.15,39.67c.19.02.66.07,1.18,0,0,0-.29.24-.65.25-.43.01-.54-.25-.54-.25Z"/>
              </g>
              <g>
                <path class="jt" d="M90.46,37.92c-.02.16.06.31.19.33.13.02.26-.1.28-.26.02-.16-.06-.31-.19-.33s-.26.1-.28.26Z"/>
                <path class="jt" d="M91.28,38.21c-.02-.25-.2-.5-.52-.59-.19-.05-.39.14-.37.27,0,0,.16-.13.35-.07.2.06.54.38.54.38Z"/>
              </g>
              <g>
                <path class="jt" d="M88.5,37.62c-.02.16.06.3.18.32.12.02.24-.09.26-.25.02-.16-.06-.3-.18-.32-.12-.02-.24.09-.26.25Z"/>
                <path class="jt" d="M89.21,37.89c.02-.23-.17-.52-.43-.56-.17-.05-.36.14-.34.27,0,0,.15-.13.33-.07.18.06.45.36.45.36Z"/>
              </g>
              <g>
                <path class="jl" d="M83.19,43.39c-.03.05-.06.06-.04,0h.04Z"/>
                <path class="fr" d="M83.19,43.39c.13-.11.48-.74.87-1.53.44-.9.78-1.63.66-1.68-.12-.06-.48.66-.92,1.56-.39.79-.65,1.48-.66,1.65h.05Z"/>
                <rect class="fv" x="84" y="41.28" width=".28" height=".19" transform="translate(26.65 -32.69) rotate(26)"/>
                <path class="jj" d="M83.27,43.14c.08-.09.4-.76.68-1.34.32-.66.67-1.36.62-1.38-.05-.02-.41.67-.73,1.33-.28.58-.57,1.27-.59,1.38h.02Z"/>
                <rect class="ki" x="84.15" y="41.32" width=".12" height=".19" transform="translate(26.68 -32.73) rotate(26)"/>
              </g>
              <g>
                <path class="jw" d="M83.27,41.77c-.08.11.04.21.15.31.12.11.25.2.33.11.09-.09-.05-.27-.17-.38-.11-.09-.23-.16-.31-.04Z"/>
                <path class="jw" d="M82.96,42.13c-.09.1.03.24.16.4.14.16.31.34.4.24.09-.09-.06-.29-.21-.47-.13-.15-.26-.28-.35-.18Z"/>
                <path class="jw" d="M82.9,42.42c-.06.08,0,.22.11.35.1.14.24.26.33.21.09-.05-.03-.24-.15-.38-.09-.12-.21-.27-.29-.17Z"/>
                <path class="jw" d="M83.08,41.94c-.08.11.02.22.14.35.13.15.28.27.4.2.12-.08-.05-.29-.2-.44-.13-.12-.26-.23-.34-.11Z"/>
              </g>
              <g>
                <path class="fu" d="M88.92,50.69c-.29.02-1.05.07-1.42.12-.37.05-1.03.37-1.01.52.02.15.52-.2.93-.26.41-.07,1.5-.38,1.5-.38Z"/>
                <path class="gg" d="M89.19,51.47c-.27.16-.67.24-1.17.33-.76.14-.92.4-1.02.25-.09-.14.79-.4.76-.46s-.36.04-.62.15c-.33.13-.65.3-.7.2-.05-.1.17-.19.54-.37.34-.17.62-.22.62-.28,0-.06-.39.1-.7.22-.26.1-.56.35-.64.22-.06-.08.28-.29.61-.46.58-.3,1.05-.46,1.59-.53.23-.03.47-.04.47-.04,0,0,0-.09.18.29.18.37.09.49.09.49Z"/>
                <path class="gd" d="M88.92,50.69c.3-.03,1.18-.28,1.18-.28l.36.9s-.96.07-1.27.15c-.31.08-.27-.77-.27-.77Z"/>
                <path class="ih" d="M90.1,50.41s-.71.2-1.07.26c.04.17.09.65-.33.85-.45.22-.75.26-.98.34.09-.02.19-.05.31-.07.5-.09.9-.17,1.17-.33.31-.08,1.27-.15,1.27-.15l-.36-.9Z"/>
              </g>
              <path class="jw" d="M84.33,43.24c.04-.38-.03-.75-.12-1.01-.05-.17-.19-.61-.3-.59-.18.03-.07.44-.03.62.06.26-.17.43-.19.65-.05.64.58.83.63.34Z"/>
              <path class="fy" d="M93.39,42.48c.91-.04,2.92,6.09,2.26,7.39-.76,1.49-4.96,1.83-6.03,1.85,0,0-.62-.71-.15-1.66,0,0,3.27-1.19,3.6-1.54.34-.36-2.25-5.92.33-6.03Z"/>
              <g>
                <path class="ka" d="M81.01,53.52v-.36s.49-.41,1.61-.41c1.13,0,2.67,0,3.73.01,1.06,0,1.59.33,1.59.33v.44s-6.93-.01-6.93-.01Z"/>
                <path class="kj" d="M85.13,52.23c-1.32-.03-2.67,0-3.88.09,1.55,0,2.57.26,3.09.9h3.88c-.72-.9-3.1-.99-3.1-.99Z"/>
                <path class="is" d="M87.01,53.23l-.13-.73c-.11-.03-.23-.06-.34-.08-.26.09-.68.21-1.23.25-.97.07-2.08-.12-2.08-.12h0c.49.15.87.37,1.12.68h2.67Z"/>
                <path class="ka" d="M91.39,53.25l.38-.02v-.12s-.52-.33-1.59-.33c-.72,0-1.65,0-2.53,0-.29-.1-.79-.22-1.53-.2-1.27.04-1.68.64-1.68.64l.39-.02v.33s6.93.01,6.93.01v-.26s-.38-.04-.38-.04Z"/>
                <polygon class="jn" points="91.39 53.25 91.79 53.23 91.79 53.11 87.81 53.09 87.81 53.54 91.79 53.54 91.79 53.29 91.39 53.25"/>
                <path class="kk" d="M80.97,53.52v-.36s.49-.41,1.61-.41c1.13,0,1.76.46,1.76.46,0,0,.91-.45,1.97-.44s1.59.33,1.59.33v.44s-6.93-.01-6.93-.01Z"/>
                <rect class="gf" x="80.67" y="53.51" width="7.34" height=".25" transform="translate(.16 -.24) rotate(.17)"/>
                <rect class="gb" x="88" y="53.53" width="4.13" height=".25" transform="translate(.16 -.26) rotate(.17)"/>
                <path class="kk" d="M84.31,53.25c-.81-1.01-3.04-.85-3.06-.85v-.07c.09,0,2.28-.16,3.11.88l-.05.04Z"/>
                <path class="fw" d="M84.59,53.51h-.5s.13-.26.25-.26c.12,0,.25.26.25.26Z"/>
                <path class="ka" d="M89.85,52.39s-.36.04-.81.24l-3.66.16-.9.29s.56-.72,2.49-.84c1.73-.11,2.88.15,2.88.15Z"/>
                <path class="kj" d="M87.89,52.87l3.88-.05s-.62-.16-1.69-.23c-1.06-.07-3.58-.17-4.54.08,0,0,1.21-.18,2.35.2Z"/>
                <path class="kj" d="M87.7,52.38l3.88-.03s-.62-.17-1.69-.26c-.87-.07-3.65-.2-4.88.54,0,0,1.35-.52,2.68-.26Z"/>
                <path class="kk" d="M84.39,53.25l-.04-.05c1.36-1.05,3.43-.43,3.55-.39h3.89v.08h-3.91s-2.13-.69-3.49.37Z"/>
                <path class="kk" d="M84.4,53.24l-.06-.04c.9-1.24,3.33-.86,3.35-.86h3.89v.08h-3.89s-2.42-.39-3.29.82Z"/>
                <g>
                  <path class="jy" d="M84.84,53.2s.16-.08.41-.15c.25-.07.6-.13.95-.15.71,0,1.37.22,1.37.22,0,0-.68-.18-1.37-.15-.35,0-.69.04-.94.1-.25.06-.41.13-.41.13Z"/>
                  <path class="jy" d="M85.04,53.31s.42-.1.85-.14c.43,0,.86.05.86.05,0,0-.43-.02-.86.02-.43,0-.86.07-.86.07Z"/>
                  <path class="jy" d="M83.99,53.21s-.17-.07-.44-.13c-.27-.06-.63-.11-.99-.11-.73-.04-1.43.21-1.43.21,0,0,.69-.29,1.43-.28.37.01.73.08,1,.15.27.07.43.15.43.15Z"/>
                  <path class="jy" d="M81.68,53.36s.52-.12,1.05-.12c.53.02,1.05.16,1.05.16,0,0-.52-.11-1.05-.1-.53-.04-1.05.05-1.05.05Z"/>
                </g>
                <rect class="jf" x="88" y="53.53" width="4.13" height=".25" transform="translate(.16 -.26) rotate(.17)"/>
              </g>
              <path class="io" d="M95.28,49.44c-.73,1.44-4.66,1.81-5.91,1.84.1.27.24.44.24.44,1.07-.01,5.28-.36,6.03-1.85.61-1.2-1.05-6.5-2.02-7.29.38.52,2.27,5.66,1.66,6.86Z"/>
              <path class="ip" d="M94.17,35.25c.2.48.19,1.1-.62,1.29-1.37.32-3.53-.87-3.66-1.85-.05-.38.03-.62.29-.82-.4.23-.61.59-.63.9-.07.83,1.17,1.26,1.78,1.67.18.13.35.28.48.47.22.31.34.71.37,1.02,0,.35-.07.64.2.7.28.06.44-.56.44-.56h-.04s0-.01,0-.01h0s0,0,0,0c.05.01,1.45.35,1.86.27.01-.05.03-.09.04-.14.1-1.21-.04-2.2-.51-2.94Z"/>
              <g>
                <path class="jt" d="M88.69,38.34s-.07,0-.11,0c-.19-.03-.33-.11-.44-.25-.23-.31-.15-.77-.15-.79,0-.03.04-.06.07-.05l4.81.72s.06.04.05.07c0,.03-.04.06-.07.05l-3.4-.51c-.02.14-.09.44-.31.62-.13.1-.28.15-.46.15ZM88.12,37.38c-.01.13-.02.43.13.63.08.11.2.18.35.2.19.03.35,0,.47-.11.19-.15.25-.42.27-.54l-1.22-.18Z"/>
                <path class="jt" d="M90.65,38.61c-.06,0-.12,0-.19-.02-.52-.1-.6-.67-.57-.95,0-.03.03-.06.07-.06.03,0,.06.04.06.07,0,.03-.07.71.46.81.77.15.95-.59.95-.62,0-.03.04-.06.08-.05.03,0,.06.04.05.08,0,0-.18.77-.91.74Z"/>
              </g>
            </g>
          </g>
        </g>
      </g>
    </g>
  </g>
</svg>